<svg xmlns="http://www.w3.org/2000/svg" viewBox="0 0 138.13 49"><defs><style>.cls-1,.cls-4{fill:#da2128;}.cls-2{fill:#fff;}.cls-2,.cls-3,.cls-4{fill-rule:evenodd;}.cls-3{fill:#231f20;}</style></defs><title>mc</title><g id="Layer_2" data-name="Layer 2"><g id="Layer_1-2" data-name="Layer 1"><rect class="cls-1" width="49" height="49"/><path class="cls-2" d="M6,24.5A18.15,18.15,0,1,0,24.11,6.35,18.14,18.14,0,0,0,6,24.5Z"/><path class="cls-3" d="M29.06,24.5a4.95,4.95,0,1,1-4.95-4.95A4.95,4.95,0,0,1,29.06,24.5Z"/><path class="cls-3" d="M63,5.58c.29,1.41.34,1.74.56,3.32.2-1.46.25-1.78.49-3l.87-4.07C65.14.51,65.4,0,67.05,0a2.47,2.47,0,0,1,1.57.31,1.88,1.88,0,0,1,.58,1.58l.1,8.35a2.12,2.12,0,0,1-.41,1.53,1.3,1.3,0,0,1-1,.36,1.43,1.43,0,0,1-.48-.07c-.9-.29-.92-1.23-.92-1.82V6.43c0-1.56,0-1.73.24-3.93-.27,1.55-.36,2.06-.63,3.41l-.79,3.94c-.22,1.08-.49,2.2-1.78,2.2s-1.64-1-1.93-2.23l-.89-4.41c-.23-1.24-.3-1.62-.54-3.08.19,2.3.2,2.55.24,3.52l0,4.4c0,.66,0,1.91-1.36,1.91a1.32,1.32,0,0,1-1-.38,2,2,0,0,1-.45-1.58l0-7.74a2.67,2.67,0,0,1,.53-2A2,2,0,0,1,59.83,0a3,3,0,0,1,1.48.26c.51.3.63.77.78,1.45Z"/><path class="cls-3" d="M77.87,10.5c0,.36,0,1.66-1.38,1.66-1.14,0-1.31-.87-1.4-1.36a2.22,2.22,0,0,1-2.18,1.43,2.32,2.32,0,0,1-1.28-.34,2.31,2.31,0,0,1-.81-2.05V4.9a1.69,1.69,0,0,1,.51-1.48,1.44,1.44,0,0,1,.83-.25,2.8,2.8,0,0,1,.45.05,1.55,1.55,0,0,1,1,1.73V8.8c0,.45,0,1.13.75,1.13s.74-.72.74-1.09V5a1.8,1.8,0,0,1,.51-1.53,1.33,1.33,0,0,1,.86-.28,1.36,1.36,0,0,1,.93.33A1.78,1.78,0,0,1,77.87,5Z"/><path class="cls-3" d="M82.55,3.11a3.6,3.6,0,0,1,2.51.8A1.63,1.63,0,0,1,85.52,5a1.11,1.11,0,0,1-1.18,1.18,1,1,0,0,1-1-.73c-.12-.29-.24-.57-.69-.57a.58.58,0,0,0-.64.6c0,.45.35.65.73.82,1.86.91,2.86,1.43,2.86,3.08a2.73,2.73,0,0,1-.73,2,3.69,3.69,0,0,1-2.73.9c-2,0-3.17-.85-3.17-2.11a1.19,1.19,0,0,1,1.3-1.28,1,1,0,0,1,1.06.68,3.62,3.62,0,0,0,.13.47.6.6,0,0,0,.58.3c.54,0,.79-.32.79-.65,0-.53-.5-.81-1.69-1.37a2.61,2.61,0,0,1-1.91-2.55C79.18,3.11,82,3.11,82.55,3.11Z"/><path class="cls-3" d="M89.06,8.29c0,1.4,0,2.15.87,2.15a.67.67,0,0,0,.75-.6,1.7,1.7,0,0,1,.07-.34,1,1,0,0,1,1.09-.63,1.13,1.13,0,0,1,1.22,1.2,2,2,0,0,1-.68,1.46,3.54,3.54,0,0,1-2.43.71,3.79,3.79,0,0,1-2.71-.83c-.94-.85-1-1.94-1-3.38,0-1.94,0-3,.67-3.79a3.58,3.58,0,0,1,2.93-1.16c3.3,0,3.46,2.35,3.46,3.61,0,1.55-.69,1.6-1.57,1.6Zm1.6-1.81c0-.9,0-1.5-.8-1.5a.71.71,0,0,0-.56.24c-.19.23-.2.57-.22,1.26Z"/><path class="cls-3" d="M101.44,10.5c0,.36,0,1.66-1.38,1.66-1.14,0-1.31-.87-1.39-1.36a2.23,2.23,0,0,1-2.18,1.43,2.32,2.32,0,0,1-1.28-.34,2.35,2.35,0,0,1-.82-2.05V4.9a1.72,1.72,0,0,1,.51-1.48,1.49,1.49,0,0,1,.84-.25,2.69,2.69,0,0,1,.44.05,1.56,1.56,0,0,1,1,1.73V8.8c0,.45,0,1.13.75,1.13s.73-.72.73-1.09V5a1.8,1.8,0,0,1,.51-1.53,1.36,1.36,0,0,1,.87-.28,1.33,1.33,0,0,1,.92.33A1.75,1.75,0,0,1,101.44,5Z"/><path class="cls-4" d="M62.86,18.43c.49,0,1.72,0,1.72,1.24a1.1,1.1,0,0,1-.36.86,1.9,1.9,0,0,1-1.34.35H60.7V23h2a1.76,1.76,0,0,1,1.28.41,1.22,1.22,0,0,1,.27.79,1.5,1.5,0,0,1-.06.42,1.37,1.37,0,0,1-1.49.77h-2V28H63a1.6,1.6,0,0,1,1.32.42,1.19,1.19,0,0,1,.3.83,1.12,1.12,0,0,1-.32.82,1.71,1.71,0,0,1-1.33.39H59.71a2.11,2.11,0,0,1-1.58-.41,1.93,1.93,0,0,1-.43-1.55V20.44a1.91,1.91,0,0,1,.56-1.65,2.18,2.18,0,0,1,1.47-.36Z"/><path class="cls-4" d="M65.56,23.8a1.82,1.82,0,0,1-.33-1,1.28,1.28,0,0,1,1.3-1.25c1,0,1.36,1.11,1.72,2.46.07-.27.15-.52.24-.78.23-.7.47-1.68,1.44-1.68a1.25,1.25,0,0,1,1.3,1.2,2,2,0,0,1-.29.92l-1.19,2.2,1.41,2.42a2,2,0,0,1,.31,1,1.25,1.25,0,0,1-1.33,1.23,1.23,1.23,0,0,1-1-.5c-.26-.31-.26-.38-.8-2.22-.7,2.13-1,2.72-1.89,2.72a1.28,1.28,0,0,1-1.35-1.26,2.07,2.07,0,0,1,.38-1.05l1.31-2.3Z"/><path class="cls-4" d="M72.2,23.2a1.63,1.63,0,0,1,.55-1.48,1.35,1.35,0,0,1,.79-.23c1.23,0,1.33,1,1.4,1.45a2.23,2.23,0,0,1,3.75-.76c.61.78.61,1.87.61,4.5a6,6,0,0,1-.42,3,2,2,0,0,1-1.84,1,2.09,2.09,0,0,1-1.87-1,1.74,1.74,0,0,1-.19-.35v2.38a1.86,1.86,0,0,1-.47,1.46,1.3,1.3,0,0,1-.91.33,1.38,1.38,0,0,1-.89-.28,1.68,1.68,0,0,1-.51-1.51V23.2ZM75,27.65a.73.73,0,0,0,.74.71.67.67,0,0,0,.69-.7,17.33,17.33,0,0,0,.07-1.94,9.23,9.23,0,0,0-.05-1.38.67.67,0,0,0-.7-.61c-.78,0-.78.63-.78,2.11C75,26.18,75,27.39,75,27.65Z"/><path class="cls-4" d="M80.53,20.08A1.69,1.69,0,0,1,81,18.66a1.39,1.39,0,0,1,.92-.33,1.44,1.44,0,0,1,.9.31,1.78,1.78,0,0,1,.51,1.48v8.76a1.73,1.73,0,0,1-.46,1.37,1.42,1.42,0,0,1-.92.31,1.58,1.58,0,0,1-.49-.07,1.43,1.43,0,0,1-.94-1.61Z"/><path class="cls-4" d="M90.77,22.3c1,.85,1,2,1,3.85a7.79,7.79,0,0,1-.27,2.57,3.33,3.33,0,0,1-3.34,1.93,4,4,0,0,1-2.49-.72c-1.08-.85-1.17-2.12-1.17-3.65,0-1.83.1-2.59.44-3.21a3.35,3.35,0,0,1,3.17-1.59,4,4,0,0,1,2.66.82ZM87.43,24a19.07,19.07,0,0,0-.09,2.31c0,1.87,0,2.44.82,2.44a.64.64,0,0,0,.67-.46A12.73,12.73,0,0,0,89,26c0-.09,0-1.28,0-1.64s-.12-.95-.81-.95A.64.64,0,0,0,87.43,24Z"/><path class="cls-4" d="M93,23.3a1.65,1.65,0,0,1,.56-1.48,1.33,1.33,0,0,1,.78-.23,1.21,1.21,0,0,1,.43.06,1.39,1.39,0,0,1,.89,1.43,2.21,2.21,0,0,1,.76-1.16,1.29,1.29,0,0,1,2.1,1,1.15,1.15,0,0,1-1.25,1.19l-.51,0c-.9,0-.95.55-1,1.26v3.46c0,.65,0,1.79-1.43,1.79S93,29.38,93,28.8Z"/><path class="cls-4" d="M105.55,29a1.71,1.71,0,0,1-.37,1.28,1.18,1.18,0,0,1-.85.31,1.25,1.25,0,0,1-1.28-1.31A2.11,2.11,0,0,1,101,30.56c-1.35,0-2.18-.76-2.18-2.47A2.21,2.21,0,0,1,100,25.84a18.34,18.34,0,0,1,1.7-.7c1-.32,1.28-.44,1.28-1.07a.68.68,0,0,0-.73-.75c-.11,0-.55,0-.65.37a1.7,1.7,0,0,1-.09.39,1.14,1.14,0,0,1-1.2.7,1.1,1.1,0,0,1-1.23-1.22c0-1.86,2-2.07,3.24-2.07,1.85,0,2.55.7,2.81,1.08a4.26,4.26,0,0,1,.45,2.45V29Zm-2.62-2.51c-1.22.46-1.6.66-1.6,1.35s.39.81.73.81a.82.82,0,0,0,.6-.24,1.57,1.57,0,0,0,.27-1.08Z"/><path class="cls-4" d="M107.51,21.14a1.69,1.69,0,0,1,.5-1.47,1.37,1.37,0,0,1,.87-.28,1.32,1.32,0,0,1,1.33.92,4.07,4.07,0,0,1,.1,1.37,3,3,0,0,1,.85,0c.46.13.46.61.46.84,0,.78-.26.93-.82.93h-.51V27c0,1.05,0,1.07.63,1.15s.67.91.67,1a1.51,1.51,0,0,1-.23.8c-.22.33-.58.59-1.51.59a2.2,2.2,0,0,1-2.1-1,5.72,5.72,0,0,1-.27-2.44V23.49a2.32,2.32,0,0,1-.61,0c-.46-.14-.46-.67-.46-.82a1.13,1.13,0,0,1,.17-.7c.18-.26.39-.26.93-.26Z"/><path class="cls-4" d="M118.52,22.3c1,.85,1,2,1,3.85a7.79,7.79,0,0,1-.27,2.57,3.32,3.32,0,0,1-3.34,1.93,4,4,0,0,1-2.49-.72c-1.09-.85-1.17-2.12-1.17-3.65,0-1.83.1-2.59.44-3.21a3.35,3.35,0,0,1,3.17-1.59,4,4,0,0,1,2.66.82Zm-3.61-3a2.23,2.23,0,0,1,.27-.73c.22-.27.39-.27,1.38-.27.19,0,.73,0,.73.49a3.66,3.66,0,0,1-.75,1.49c-.27.27-.53.27-1,.27-.26,0-.77,0-.77-.56a3,3,0,0,1,.14-.69Zm.27,4.64a19.07,19.07,0,0,0-.09,2.31c0,1.87,0,2.44.82,2.44a.64.64,0,0,0,.67-.46,12.73,12.73,0,0,0,.13-2.28c0-.09,0-1.28,0-1.64s-.12-.95-.81-.95A.64.64,0,0,0,115.18,24Z"/><path class="cls-4" d="M120.7,23.3a1.65,1.65,0,0,1,.56-1.48,1.31,1.31,0,0,1,.78-.23,1.21,1.21,0,0,1,.43.06,1.37,1.37,0,0,1,.88,1.43,2.29,2.29,0,0,1,.77-1.16,1.29,1.29,0,0,1,2.1,1A1.15,1.15,0,0,1,125,24.07l-.51,0c-.9,0-.95.55-1,1.26v3.46c0,.65,0,1.79-1.43,1.79s-1.36-1.18-1.36-1.76Z"/><path class="cls-4" d="M126.85,19.61a1.42,1.42,0,1,1,2.84,0,1.42,1.42,0,0,1-2.84,0Zm0,3.71a1.69,1.69,0,0,1,.58-1.53,1.31,1.31,0,0,1,.78-.22,1.35,1.35,0,0,1,.46.06c1,.29,1,1.26,1,1.76V28.7c0,.7,0,1.85-1.36,1.85s-1.43-1.23-1.43-1.86Z"/><path class="cls-4" d="M137.12,22.3c1,.85,1,2,1,3.85a7.52,7.52,0,0,1-.28,2.57,3.32,3.32,0,0,1-3.34,1.93,4,4,0,0,1-2.48-.72c-1.09-.85-1.18-2.12-1.18-3.65,0-1.83.1-2.59.45-3.21a3.32,3.32,0,0,1,3.16-1.59,3.94,3.94,0,0,1,2.66.82ZM133.78,24a21.44,21.44,0,0,0-.08,2.31c0,1.87.05,2.44.81,2.44a.64.64,0,0,0,.67-.46,12.73,12.73,0,0,0,.13-2.28c0-.09,0-1.28,0-1.64s-.12-.95-.8-.95A.65.65,0,0,0,133.78,24Z"/><path class="cls-3" d="M64.84,47.13a1.81,1.81,0,0,1-.51,1.52,1.34,1.34,0,0,1-.86.27,1.41,1.41,0,0,1-1.41-1.41,1.92,1.92,0,0,1-.42.75A2.13,2.13,0,0,1,60,49a2.94,2.94,0,0,1-.77-.1c-1.5-.47-1.55-1.91-1.55-4.79,0-2,.07-2.76.58-3.46a2,2,0,0,1,1.74-.8,2.11,2.11,0,0,1,1.79.87,3,3,0,0,1,.25.43V38.55a1.86,1.86,0,0,1,.51-1.5,1.35,1.35,0,0,1,.89-.29,1.27,1.27,0,0,1,.42.05c.94.26.94,1.14,1,1.71v8.61ZM60.49,43c0,.36,0,1.19,0,1.59a12.16,12.16,0,0,0,.07,1.61.66.66,0,0,0,.69.6.67.67,0,0,0,.7-.58A11.41,11.41,0,0,0,62,44.39c0-.36,0-1,0-1.39,0-.26-.07-.91-.72-.91S60.54,42.41,60.49,43Z"/><path class="cls-3" d="M68.74,45c0,1.39,0,2.14.87,2.14a.67.67,0,0,0,.75-.59,1.59,1.59,0,0,1,.06-.34,1.08,1.08,0,0,1,1.1-.64,1.14,1.14,0,0,1,1.22,1.2,2,2,0,0,1-.68,1.46,3.54,3.54,0,0,1-2.44.72,3.77,3.77,0,0,1-2.71-.84c-.93-.85-1-1.94-1-3.37,0-1.94,0-3,.66-3.8a3.62,3.62,0,0,1,2.94-1.16c3.3,0,3.46,2.35,3.46,3.61C73,45,72.33,45,71.45,45Zm1.6-1.81c0-.9,0-1.5-.8-1.5a.69.69,0,0,0-.56.24c-.19.22-.21.56-.22,1.26Z"/><path class="cls-3" d="M80,45.57a2.84,2.84,0,0,1,.1-.66,1.36,1.36,0,0,1,1.36-.84c1,0,1.45.68,1.45,1.72a3,3,0,0,1-.82,2.11,4,4,0,0,1-3,1,4.49,4.49,0,0,1-2.65-.64C75.25,47.48,75,46.4,75,42.79c0-2.94,0-4.48,1.4-5.48A4.49,4.49,0,0,1,79,36.59a4.73,4.73,0,0,1,2.57.58,2.65,2.65,0,0,1,1.28,2.52c0,.48,0,1.84-1.48,1.84a1.32,1.32,0,0,1-1-.36,1.37,1.37,0,0,1-.31-.92C80,39.63,80,39,79.17,39a1,1,0,0,0-1.06,1c-.09.65-.09,2.6-.09,3a18.29,18.29,0,0,0,.12,2.62.93.93,0,0,0,1,.84C79.93,46.49,80,45.87,80,45.57Z"/><path class="cls-3" d="M83.9,37.92a1.43,1.43,0,1,1,1.43,1.41,1.43,1.43,0,0,1-1.43-1.41Zm0,3.71a1.67,1.67,0,0,1,.57-1.53,1.32,1.32,0,0,1,.79-.22,1.17,1.17,0,0,1,.46.07c1,.29,1,1.26,1,1.75V47c0,.69,0,1.84-1.36,1.84S83.94,47.63,83.94,47Z"/><path class="cls-3" d="M90.66,45c0,1.39,0,2.14.87,2.14a.66.66,0,0,0,.75-.59,1.57,1.57,0,0,1,.07-.34,1,1,0,0,1,1.09-.64,1.15,1.15,0,0,1,1.23,1.2A1.93,1.93,0,0,1,94,48.24a3.53,3.53,0,0,1-2.43.72,3.73,3.73,0,0,1-2.71-.84c-.94-.85-1-1.94-1-3.37,0-1.94,0-3,.66-3.8a3.59,3.59,0,0,1,2.93-1.16c3.31,0,3.46,2.35,3.46,3.61,0,1.56-.68,1.61-1.57,1.61Zm1.77-6c-.68,0-.9-.78-1-1.2-.24.76-.4,1.2-1,1.2a.84.84,0,0,1-.87-.82c0-.13,0-.44.55-1.12a1.56,1.56,0,0,1,1.34-.77,1.45,1.45,0,0,1,1.29.77,2.08,2.08,0,0,1,.57,1.16.81.81,0,0,1-.86.78Zm-.17,4.16c0-.9,0-1.5-.8-1.5a.72.72,0,0,0-.56.24c-.19.22-.2.56-.22,1.26Z"/><path class="cls-3" d="M96,41.51a1.4,1.4,0,0,1,.93-1.58,1.64,1.64,0,0,1,.85,0,1.41,1.41,0,0,1,.92,1.46,2.26,2.26,0,0,1,2.22-1.6,2.37,2.37,0,0,1,1.21.31c.92.57.92,1.74.92,2.52V47a3.47,3.47,0,0,1-.1,1,1.24,1.24,0,0,1-1.23.82,1.56,1.56,0,0,1-.48-.07c-.95-.27-1-1.26-1-1.83v-3.8c0-.35,0-1.06-.76-1.06s-.72.67-.72,1v4a1.78,1.78,0,0,1-.51,1.5,1.68,1.68,0,0,1-.91.27,1.4,1.4,0,0,1-.86-.27A1.67,1.67,0,0,1,96,47.12Z"/><path class="cls-3" d="M105,40.83a3.91,3.91,0,0,1,2.8-1c1.85,0,3.15,1,3.15,2.46a1.3,1.3,0,0,1-1.33,1.44,1.27,1.27,0,0,1-.7-.2,1.47,1.47,0,0,1-.58-1.17c0-.23-.1-.64-.58-.64a.62.62,0,0,0-.56.32c-.09.16-.17.33-.17,2.21,0,.54,0,1.37,0,1.9,0,.31.09.94.74.94a.56.56,0,0,0,.52-.36c0-.09.1-.56.12-.66a1.24,1.24,0,0,1,1.25-1,1.3,1.3,0,0,1,1.32,1.45c0,1.78-1.77,2.45-3.23,2.45a4,4,0,0,1-2.31-.63c-1.12-.81-1.29-1.88-1.29-3.92C104.22,42.55,104.34,41.6,105,40.83Z"/><path class="cls-3" d="M111.89,37.92a1.42,1.42,0,1,1,2.84,0,1.42,1.42,0,0,1-2.84,0Zm0,3.71a1.7,1.7,0,0,1,.58-1.53,1.32,1.32,0,0,1,.79-.22,1.1,1.1,0,0,1,.45.07,1.57,1.57,0,0,1,1,1.75V47c0,.69,0,1.84-1.37,1.84s-1.43-1.23-1.43-1.86Z"/><path class="cls-3" d="M122.67,47.28a1.82,1.82,0,0,1-.37,1.29,1.2,1.2,0,0,1-.85.3,1.25,1.25,0,0,1-1.28-1.31,2.12,2.12,0,0,1-2.06,1.31c-1.35,0-2.19-.76-2.19-2.47a2.23,2.23,0,0,1,1.16-2.25,17,17,0,0,1,1.71-.69c1-.33,1.27-.45,1.27-1.08a.68.68,0,0,0-.73-.75c-.1,0-.54,0-.64.37,0,.14,0,.27-.09.4a1.16,1.16,0,0,1-1.21.69,1.09,1.09,0,0,1-1.22-1.22c0-1.86,2-2.06,3.23-2.06,1.86,0,2.55.69,2.81,1.07a4.21,4.21,0,0,1,.46,2.46v3.94Zm-2.62-2.51c-1.23.46-1.6.66-1.6,1.36a.7.7,0,0,0,.73.8.79.79,0,0,0,.59-.24,1.54,1.54,0,0,0,.28-1.07Z"/><path class="cls-3" d="M127.39,39.83a3.51,3.51,0,0,1,2.5.8,1.57,1.57,0,0,1,.47,1.09,1.11,1.11,0,0,1-1.18,1.17,1,1,0,0,1-1.06-.73c-.12-.29-.24-.56-.68-.56a.59.59,0,0,0-.65.59c0,.45.36.65.74.82,1.85.92,2.86,1.43,2.86,3.09a2.69,2.69,0,0,1-.74,1.95,3.63,3.63,0,0,1-2.72.91c-2,0-3.17-.85-3.17-2.12a1.18,1.18,0,0,1,1.3-1.27,1,1,0,0,1,1,.68c.06.15.07.32.14.46a.59.59,0,0,0,.58.31c.54,0,.78-.33.78-.65,0-.54-.49-.82-1.68-1.38A2.6,2.6,0,0,1,124,42.45C124,39.83,126.88,39.83,127.39,39.83Z"/></g></g></svg>