<?xml version="1.0" encoding="UTF-8"?>
<!-- Generator: Adobe Illustrator 22.1.0, SVG Export Plug-In . SVG Version: 6.00 Build 0)  -->
<svg version="1.1" id="Camada_1" xmlns="http://www.w3.org/2000/svg" xmlns:xlink="http://www.w3.org/1999/xlink" x="0px" y="0px" viewBox="0 0 489.9 98" style="enable-background:new 0 0 489.9 98;" xml:space="preserve">
<style type="text/css">
	.st0{fill-rule:evenodd;clip-rule:evenodd;fill:#C3161C;}
	.st1{fill-rule:evenodd;clip-rule:evenodd;fill:#FFFFFF;}
	.st2{fill-rule:evenodd;clip-rule:evenodd;fill:#231F20;}
</style>
<g>
	<path class="st0" d="M399.2,0H419h46.6c13.4,0,24.3,10.9,24.3,24.3v49.4c0,13.4-10.9,24.3-24.3,24.3H419h-19.8H267V0H399.2z"/>
	<path class="st1" d="M275.5,7h92.6v19.7h-67.5v12.1h64.1v18.3h-64.1v13.6h68v20.1h-93.1V7L275.5,7z M456.2,58.5h25.5   c0.2,4.1,0.3,6.7,0.3,7.9c0,6.4-1,11.5-2.9,15.1c-2.1,4.1-6.3,6.9-12.4,8.3c-6.2,1.5-16.8,2.2-32,2.2c-15.9,0-27.3-0.3-34.1-0.9   c-6.8-0.6-11.9-1.8-15.3-3.6c-3.1-1.6-5.4-3.7-6.9-6.4c-1.5-2.7-2.5-6.4-3-11.1c-0.4-3.8-0.5-10.7-0.5-20.6c0-9.7,0.2-16.7,0.5-21   c0.4-4.3,1.1-7.6,2.2-10c2.3-5.3,7.1-8.7,14.2-10.3c7.1-1.6,21.5-2.4,43.1-2.4c10.8,0,18.6,0.3,23.5,0.7c4.9,0.5,8.8,1.4,11.7,2.8   c3.8,1.8,6.5,4.5,8,8c1.5,3.5,2.3,8.7,2.3,15.6c0,0.4,0,1.8-0.1,4.2h-25.5c-0.1-2.8-0.3-4.6-0.5-5.5c-0.2-0.9-0.7-1.7-1.4-2.3   c-1-0.8-3.5-1.5-7.4-1.8c-4-0.4-10-0.6-18-0.6c-8,0-13.5,0.2-16.6,0.5c-3.1,0.3-5.2,1-6.5,2.1c-1.5,1.2-2.6,3.3-3.2,6.2   c-0.6,2.9-0.9,7.5-0.9,13.8c0,6.3,0.3,10.8,0.8,13.4c0.5,2.6,1.5,4.5,3.1,5.6c1.4,1.1,3.7,1.8,6.8,2.2c3.1,0.4,8.7,0.5,16.6,0.5   c9.8,0,16.3-0.2,19.5-0.5c3.2-0.3,5.4-1,6.6-2.1C455.3,67,456.1,63.7,456.2,58.5z"/>
	<path class="st2" d="M224.4,46.6c-7.3,0-12.3,0.6-14.9,1.7c-1.9,0.9-3.2,2.3-4,4.3c-0.8,2-1.2,5-1.2,8.9c0,3.9,0.3,6.7,1,8.3   c0.6,1.7,1.9,2.9,3.7,3.8c2.8,1.3,7.9,2,15.2,2c8.4,0,13.8-0.9,16.1-2.6c2.3-1.8,3.5-5.8,3.5-12c0-3.9-0.4-6.8-1.1-8.6   c-0.7-1.8-2-3.1-4-3.9C236.1,47.2,231.3,46.6,224.4,46.6L224.4,46.6z M25.5,49.3h31.9c5.8,0,9.3-0.1,10.6-0.3   c1.3-0.1,2.4-0.4,3.5-1c1.3-0.7,2.2-1.8,2.7-3.2c0.5-1.4,0.7-3.6,0.7-6.6c0-3-0.3-5.2-0.9-6.5c-0.6-1.4-1.7-2.4-3.2-3   c-1.2-0.5-5.6-0.7-13.3-0.9H25.5V49.3L25.5,49.3z M0,90.7V7h57.3C68.6,7,76,7.2,79.2,7.7c8.3,1.1,13.9,3.8,16.8,8   c2.9,4.2,4.4,11.8,4.4,22.7c0,10.4-1.2,17.6-3.6,21.8c-1.6,2.8-3.9,5-6.9,6.4c-2.9,1.5-7,2.5-12.1,3.1c-3.6,0.4-10.4,0.6-20.3,0.6   H25.5v20.5H0L0,90.7z M108,31.4h20.8v8.9h1.2c2.1-3.8,4.9-6.5,8.4-8c3.5-1.6,8.4-2.4,14.6-2.4c9,0,15.2,1.8,18.7,5.3   c3.5,3.5,5.3,9.7,5.3,18.6c0,0.5-0.1,1.9-0.2,4h-20.9c0-3.5-0.4-5.9-1.1-7.3c-1.4-2.6-5-3.9-10.6-3.9c-5.3,0-9,1.4-11.2,4.3   c-1.1,1.4-1.9,3.2-2.2,5.3c-0.4,2.1-0.6,5.4-0.6,9.9v24.7H108V31.4L108,31.4z M224.3,29.9c10.1,0,17.6,0.4,22.6,1.2   c5,0.8,8.9,2.2,11.7,4.2c3,2.1,4.9,4.9,6,8.3c1.1,3.4,1.6,8.9,1.6,16.3c0,5.5-0.1,9.6-0.5,12.4c-0.3,2.8-0.9,5.3-1.7,7.4   c-2.1,5.5-6.4,9.1-12.9,10.6c-5.4,1.3-14.3,1.9-26.8,1.9c-11.1,0-19-0.4-23.8-1.2c-4.8-0.8-8.6-2.4-11.4-4.7   c-2.7-2.2-4.6-5.2-5.5-8.8c-0.9-3.6-1.4-9.8-1.4-18.4c0-4.9,0.2-8.6,0.6-11.2c0.4-2.6,1.1-4.9,2.2-7c2.2-4.3,6-7.3,11.4-8.8   C201.8,30.7,211.1,29.9,224.3,29.9z"/>
</g>
</svg>