<?xml version="1.0" encoding="UTF-8" standalone="no"?>
<!-- Created with Inkscape (http://www.inkscape.org/) -->

<svg
   xmlns:dc="http://purl.org/dc/elements/1.1/"
   xmlns:cc="http://creativecommons.org/ns#"
   xmlns:rdf="http://www.w3.org/1999/02/22-rdf-syntax-ns#"
   xmlns:svg="http://www.w3.org/2000/svg"
   xmlns="http://www.w3.org/2000/svg"
   xmlns:sodipodi="http://sodipodi.sourceforge.net/DTD/sodipodi-0.dtd"
   xmlns:inkscape="http://www.inkscape.org/namespaces/inkscape"
   version="1.1"
   id="svg2"
   xml:space="preserve"
   width="1301.4019"
   height="612.66437"
   viewBox="0 0 1301.4019 612.66439"
   sodipodi:docname="houses-1719055.svg"
   inkscape:version="0.92.3 (2405546, 2018-03-11)"><metadata
     id="metadata8"><rdf:RDF><cc:Work
         rdf:about=""><dc:format>image/svg+xml</dc:format><dc:type
           rdf:resource="http://purl.org/dc/dcmitype/StillImage" /><dc:title></dc:title></cc:Work></rdf:RDF></metadata><defs
     id="defs6"><clipPath
       clipPathUnits="userSpaceOnUse"
       id="clipPath18"><path
         d="M 0,1000 H 1000 V 0 H 0 Z"
         id="path16"
         inkscape:connector-curvature="0" /></clipPath></defs><sodipodi:namedview
     pagecolor="#ffffff"
     bordercolor="#666666"
     borderopacity="1"
     objecttolerance="10"
     gridtolerance="10"
     guidetolerance="10"
     inkscape:pageopacity="0"
     inkscape:pageshadow="2"
     inkscape:window-width="1299"
     inkscape:window-height="704"
     id="namedview4"
     showgrid="false"
     inkscape:zoom="0.35400002"
     inkscape:cx="531.4377"
     inkscape:cy="361.23096"
     inkscape:window-x="67"
     inkscape:window-y="27"
     inkscape:window-maximized="1"
     inkscape:current-layer="g10" /><g
     id="g10"
     inkscape:groupmode="layer"
     inkscape:label="houses-1719055"
     transform="matrix(1.3333333,0,0,-1.3333333,-19.59262,973.95291)"><g
       id="g12"><g
         id="g14"
         clip-path="url(#clipPath18)"><g
           id="g20"
           transform="translate(107.6885,528.2891)"><path
             d="m 0,0 c -0.289,10.925 12.715,22.835 14.57,31.309 2.217,0.964 4.162,-2.488 5.651,-3.109 0.29,0.342 6.311,17.02 6.539,17.982 20.356,-0.435 1.945,-16.917 1.33,-23.532 -0.067,-0.726 5.352,-8.728 6.207,-9.768 C 38.138,8.202 22.292,-12.382 19.668,-16.869 13.643,-13.596 4.1,-7.146 0.606,-3.549 0.225,-2.382 0.032,-1.197 0,0"
             style="fill:#77df36;fill-opacity:1;fill-rule:evenodd;stroke:none"
             id="path22"
             inkscape:connector-curvature="0" /></g><g
           id="g24"
           transform="translate(35.5947,435.0469)"><path
             d="m 0,0 17.29,-152.301 136.974,14.209 -13.742,169.176 z"
             style="fill:#77df36;fill-opacity:1;fill-rule:evenodd;stroke:none"
             id="path26"
             inkscape:connector-curvature="0" /></g><g
           id="g28"
           transform="translate(21.8525,438.6006)"><path
             d="M 0,0 70.927,108.343 175.1,29.307 86,7.103 Z"
             style="fill:#ff0000;fill-opacity:1;fill-rule:evenodd;stroke:none"
             id="path30"
             inkscape:connector-curvature="0" /></g><g
           id="g32"
           transform="translate(36.9258,433.7148)"><path
             d="M 0,0 9.751,-60.831 44.329,-52.394 33.245,6.215 Z"
             style="fill:#ffffff;fill-opacity:1;fill-rule:evenodd;stroke:none"
             id="path34"
             inkscape:connector-curvature="0" /></g><g
           id="g36"
           transform="translate(120.7065,447.4805)"><path
             d="m 0,0 6.65,-52.841 49.649,10.215 -5.321,55.06 z"
             style="fill:#ffffff;fill-opacity:1;fill-rule:evenodd;stroke:none"
             id="path38"
             inkscape:connector-curvature="0" /></g><g
           id="g40"
           transform="translate(121.1494,289.8486)"><path
             d="M 0,0 -16.401,70.601 22.166,74.598 34.578,3.109 Z"
             style="fill:#8f4b2b;fill-opacity:1;fill-rule:evenodd;stroke:none"
             id="path42"
             inkscape:connector-curvature="0" /></g><g
           id="g44"
           transform="translate(372.4956,542.0576)"><path
             d="M 0,0 -3.547,-44.846 46.101,-35.522 32.804,5.772 Z"
             style="fill:#ffffff;fill-opacity:1;fill-rule:evenodd;stroke:none"
             id="path46"
             inkscape:connector-curvature="0" /></g><g
           id="g48"
           transform="translate(438.1021,482.1162)"><path
             d="m 0,0 -135.647,-16.431 -59.4,-2.221 19.504,-162.513 72.7,-6.217 63.39,7.104 57.183,3.109 z"
             style="fill:#fffd39;fill-opacity:1;fill-rule:evenodd;stroke:none"
             id="path50"
             inkscape:connector-curvature="0" /></g><g
           id="g52"
           transform="translate(299.3525,465.6855)"><path
             d="m 0,0 -58.515,-2.222 9.31,-67.048 59.399,5.331 3.991,10.211 z"
             style="fill:#ffffff;fill-opacity:1;fill-rule:evenodd;stroke:none"
             id="path54"
             inkscape:connector-curvature="0" /></g><g
           id="g56"
           transform="translate(368.9482,472.3457)"><path
             d="m 0,0 7.093,-35.078 3.548,-33.303 66.048,0.89 0.888,31.079 -7.978,45.737 z"
             style="fill:#ffffff;fill-opacity:1;fill-rule:evenodd;stroke:none"
             id="path58"
             inkscape:connector-curvature="0" /></g><g
           id="g60"
           transform="translate(336.5889,295.623)"><path
             d="M 0,0 -13.298,84.366 37.679,88.805 54.968,4.441 23.05,-0.445 Z"
             style="fill:#1db838;fill-opacity:1;fill-rule:evenodd;stroke:none"
             id="path62"
             inkscape:connector-curvature="0" /></g><g
           id="g64"
           transform="translate(346.7847,556.7114)"><path
             d="m 0,0 -3.104,33.744 -6.648,12.432 -8.422,14.208 17.287,12.878 7.98,-20.426 9.307,3.11 7.979,-19.095 10.199,-0.443 5.76,-31.968 z"
             style="fill:#fffd39;fill-opacity:1;fill-rule:evenodd;stroke:none"
             id="path66"
             inkscape:connector-curvature="0" /></g><g
           id="g68"
           transform="translate(231.0854,466.1309)"><path
             d="m 0,0 h 50.093 l 149.832,14.65 35.021,6.663 -42.558,80.811 L 66.493,83.476 52.309,85.252 34.134,60.832 18.174,45.733 5.762,25.31 Z"
             style="fill:#ff9424;fill-opacity:1;fill-rule:evenodd;stroke:none"
             id="path70"
             inkscape:connector-curvature="0" /></g><g
           id="g72"
           transform="translate(511.1211,410.1523)"><path
             d="m 0,0 c 0.3,-1.286 1.119,-2.549 1.453,-3.521 6.451,-18.738 7.491,-22.671 9.309,-43.517 1.659,-19.044 2.007,-43.378 3.989,-60.832 4.027,-0.579 14.807,0.445 19.949,0.445 -0.098,8.196 -4.008,28.793 -6.209,36.855 -3.988,14.613 11.432,63.725 8.865,76.372 C 25.646,4.298 13.894,10.348 2.637,4.173 -0.003,3.03 -0.354,1.498 0,0"
             style="fill:#8f4b2b;fill-opacity:1;fill-rule:evenodd;stroke:none"
             id="path74"
             inkscape:connector-curvature="0" /></g><g
           id="g76"
           transform="translate(569.3135,427.0566)"><path
             d="m 0,0 c -6.833,-7.306 -28.976,-16.149 -39.896,-15.986 -15.509,0.232 -31.771,1.49 -41.667,9.767 -4.857,4.066 -13.38,20.074 -10.196,27.53 3.765,8.816 10.335,15.76 20.392,15.986 -3.627,17.098 3.933,29.437 17.286,33.745 -0.419,5.225 -6.244,12.172 -5.761,21.758 0.747,14.755 20.059,27.394 33.244,23.977 14.529,-3.765 16.056,-24.255 10.198,-37.298 -1.222,-2.721 -4.965,-7 -6.76,-8.437 0.833,-1.255 1.351,-2.454 1.881,-3.996 0.969,-2.811 2.178,-4.472 4.433,-7.106 0.865,-1.007 1.118,-1.777 1.773,-2.662 0.217,-0.291 4.41,-3.653 4.879,-3.996 C -2.815,47.847 8.67,41.579 10.639,30.19 11.882,22.99 5.823,2.482 3.104,-0.445 2.388,0.478 1.354,0.626 0,0"
             style="fill:#1db838;fill-opacity:1;fill-rule:evenodd;stroke:none"
             id="path78"
             inkscape:connector-curvature="0" /></g><g
           id="g80"
           transform="translate(583.9404,566.0352)"><path
             d="m 0,0 40.341,-218.907 -0.443,-41.739 102.842,-4.88 -6.205,36.852 3.99,37.297 -11.083,56.395 -10.194,77.259 V 8.436 Z"
             style="fill:#3b7695;fill-opacity:1;fill-rule:evenodd;stroke:none"
             id="path82"
             inkscape:connector-curvature="0" /></g><g
           id="g84"
           transform="translate(563.1074,566.0352)"><path
             d="M 0,0 109.936,7.546 164.461,17.759 139.191,97.686 14.186,87.027 Z"
             style="fill:#9536df;fill-opacity:1;fill-rule:evenodd;stroke:none"
             id="path86"
             inkscape:connector-curvature="0" /></g><g
           id="g88"
           transform="translate(611.8691,423.502)"><path
             d="m 0,0 10.197,-47.954 3.989,-70.158 34.132,-1.329 L 31.03,3.555 Z"
             style="fill:#ffd300;fill-opacity:1;fill-rule:evenodd;stroke:none"
             id="path90"
             inkscape:connector-curvature="0" /></g><g
           id="g92"
           transform="translate(638.4658,568.6978)"><path
             d="m 0,0 9.752,-68.379 -2.659,-43.513 48.762,8.435 L 46.104,6.66 Z"
             style="fill:#ffffff;fill-opacity:1;fill-rule:evenodd;stroke:none"
             id="path94"
             inkscape:connector-curvature="0" /></g><g
           id="g96"
           transform="translate(781.9482,414.3232)"><path
             d="m 0,0 c 1.388,-11.36 11.863,-28.909 14.772,-35.221 7.411,-16.093 2.108,-58.537 7.978,-78.151 6.776,-0.201 13.482,1.518 19.729,0.223 0.906,8.907 -5.775,23.272 -7.757,32.191 -1.641,7.383 -3.856,27.648 -3.547,35.521 0.628,15.999 12.092,31.244 11.527,41.294 C 35.067,0.002 30.994,5.865 20.979,6.072 20.447,6.085 19.746,6.034 19.207,6.072 18.126,6.151 17.89,6.622 17.432,6.515 13.914,5.694 6.529,11.963 2.36,8.736 0.1,6.984 -0.471,3.848 0,0"
             style="fill:#8f4b2b;fill-opacity:1;fill-rule:evenodd;stroke:none"
             id="path98"
             inkscape:connector-curvature="0" /></g><g
           id="g100"
           transform="translate(759.4141,426.207)"><path
             d="m 0,0 c -16.614,21.128 0.427,42.135 10.269,58.351 -7.116,3.262 -19.408,17.701 -19.507,25.53 -0.141,11.074 3.221,17.325 5.318,27.086 0.501,2.339 -0.204,14.195 0,18.205 0.575,11.249 30.526,19.165 41.227,13.319 2.183,-1.193 5.226,-11.543 4.877,-14.206 22.545,8.191 42.448,-8.829 54.966,-19.537 7.791,-6.665 4.438,-42.244 -1.772,-49.732 C 91.097,53.851 90.176,50.015 84.146,45.472 94.525,41.312 107.545,31.56 104.688,17.277 102.149,4.59 95.606,-7.515 85.183,-13.807 66.843,-24.876 50.66,-16.814 37.752,-8.476 c -0.125,0.08 0,0.294 0,0.442 C 30.258,-4.106 14.838,-14.047 7.607,-5.812 5.283,-3.165 5.103,-4.132 2.73,-3.147 1.732,-2.1 0.829,-1.051 0,0"
             style="fill:#77df36;fill-opacity:1;fill-rule:evenodd;stroke:none"
             id="path102"
             inkscape:connector-curvature="0" /></g><g
           id="g104"
           transform="translate(892.0293,302.2822)"><path
             d="m 0,0 -5.321,72.376 5.762,75.931 88.215,14.652 6.207,-169.176 z"
             style="fill:#ff4b00;fill-opacity:1;fill-rule:evenodd;stroke:none"
             id="path106"
             inkscape:connector-curvature="0" /></g><g
           id="g108"
           transform="translate(889.8115,448.3672)"><path
             d="m 0,0 10.197,55.949 8.865,62.607 57.627,6.215 L 83.781,76.818 97.968,19.982 72.7,14.654 Z"
             style="fill:#ff00e0;fill-opacity:1;fill-rule:evenodd;stroke:none"
             id="path110"
             inkscape:connector-curvature="0" /></g><g
           id="g112"
           transform="translate(890.2539,450.1445)"><path
             d="m 0,0 -2.214,-32.858 22.163,-0.443 2.217,35.966 z"
             style="fill:#ffffff;fill-opacity:1;fill-rule:evenodd;stroke:none"
             id="path114"
             inkscape:connector-curvature="0" /></g><g
           id="g116"
           transform="translate(934.1406,456.8057)"><path
             d="m 0,0 11.527,-58.169 37.677,11.544 -1.326,59.057 z"
             style="fill:#ffffff;fill-opacity:1;fill-rule:evenodd;stroke:none"
             id="path118"
             inkscape:connector-curvature="0" /></g><g
           id="g120"
           transform="translate(958.9658,297.8418)"><path
             d="M 0,0 -3.548,63.942 25.266,62.607 27.482,0.891 Z"
             style="fill:#ffffff;fill-opacity:1;fill-rule:evenodd;stroke:none"
             id="path122"
             inkscape:connector-curvature="0" /></g><g
           id="g124"
           transform="translate(893.3594,301.3955)"><path
             d="m 0,0 -6.209,48.842 1.333,25.756 36.348,2.219 9.309,-81.257 z"
             style="fill:#bdff00;fill-opacity:1;fill-rule:evenodd;stroke:none"
             id="path126"
             inkscape:connector-curvature="0" /></g><g
           id="g128"
           transform="translate(924.8311,572.2505)"><path
             d="m 0,0 -3.102,31.081 -17.289,53.283 24.382,10.213 7.98,-31.08 8.866,-63.942 z"
             style="fill:#ff4b00;fill-opacity:1;fill-rule:evenodd;stroke:none"
             id="path130"
             inkscape:connector-curvature="0" /></g><g
           id="g132"
           transform="translate(584.3848,652.1748)"><path
             d="M 0,0 -16.844,31.527 32.803,42.182 38.124,7.105 Z"
             style="fill:#3b7695;fill-opacity:1;fill-rule:evenodd;stroke:none"
             id="path134"
             inkscape:connector-curvature="0" /></g><g
           id="g136"
           transform="translate(221.7759,602.8877)"><path
             d="m 0,0 c -9.101,7.265 -40.012,1.967 -40.559,-12.209 16.115,2.73 23.645,3.288 38.196,9.841 z"
             style="fill:#1db838;fill-opacity:1;fill-rule:evenodd;stroke:none"
             id="path138"
             inkscape:connector-curvature="0" /></g><g
           id="g140"
           transform="translate(229.7559,599.3359)"><path
             d="M 0,0 C 19.064,-4.564 14.367,-30.453 16.845,-43.069 12.323,-35.513 4.507,-29.552 0.886,-21.758 -0.763,-18.208 -6.099,-3.114 0,0"
             style="fill:#1db838;fill-opacity:1;fill-rule:evenodd;stroke:none"
             id="path142"
             inkscape:connector-curvature="0" /></g><g
           id="g144"
           transform="translate(223.5498,706.3447)"><path
             d="m 0,0 c -6.099,6.726 -22.785,-7.503 -17.952,-11.988 2.769,-2.366 13.706,-6.026 17.361,-7.547 -5.585,-5.377 -13.165,-12.511 -13.595,-20.87 -0.675,-13.168 20.735,2.133 23.051,1.776 -0.614,-9.067 -5.432,-21.828 7.537,-21.313 5.659,0.225 10.366,10.03 12.635,15.984 1.201,-4.808 1.624,-4.461 4.652,-7.549 1.769,-1.804 2.254,-2.008 4.877,-2.663 14.757,-3.687 5.714,23.264 5.764,25.309 13.614,-6.446 25.499,7.804 20.389,15.542 C 61.515,-8.467 50.597,-7.198 43.886,-5.77 40.911,3.821 50.863,20.695 37.68,20.427 32.496,20.322 23.19,10.982 21.5,7.996 20.925,11.045 10.708,21.778 7.092,19.983 6.947,19.91 6.796,19.834 6.65,19.761 3.01,16.876 -3.188,7.685 3.326,3.333 Z"
             style="fill:#ffd300;fill-opacity:1;fill-rule:evenodd;stroke:none"
             id="path146"
             inkscape:connector-curvature="0" /></g><g
           id="g148"
           transform="translate(246.2466,698.7646)"><path
             d="M 0,0 C -8.206,-0.802 -11.369,-10.699 -3.192,-16.84 2.493,-21.11 14.833,-5.563 8.777,-2.186 5.499,-0.359 2.513,0.247 0,0"
             style="fill:#ff4b00;fill-opacity:1;fill-rule:evenodd;stroke:none"
             id="path150"
             inkscape:connector-curvature="0" /></g><g
           id="g152"
           transform="translate(699.0664,513.2944)"><path
             d="m 0,0 c 0.197,-0.005 0.397,-0.009 0.596,-0.013 -0.294,4.783 -0.392,9.365 -0.68,14.151 -0.401,-0.19 -0.602,-0.185 -1,-0.176 C -0.588,9.37 -0.297,4.584 0,0 m -167.854,-102.997 c -1.396,-0.166 -2.593,-0.339 -4.382,-0.498 1.133,-2.615 1.884,-4.623 3.016,-7.236 0.466,2.977 0.911,5.158 1.366,7.734 m -347.83,-26.332 c -0.398,0.007 -0.795,0.017 -1.193,0.026 0.45,-6.579 0.901,-13.159 1.353,-19.739 0.197,-0.006 0.396,-0.01 0.595,-0.013 -0.252,6.576 -0.503,13.15 -0.755,19.726 M -2.229,43.055 c 0.2,-0.006 0.399,-0.01 0.794,-0.018 0.126,5.77 0.257,11.544 0.385,17.316 -0.599,0.011 -1.001,-0.179 -1.596,-0.166 0.072,-5.774 0.344,-11.358 0.417,-17.132 M 62.274,20.719 c -3.729,2.074 -4.992,-1.084 -5.23,-2.87 -1.181,-8.337 -1.958,-16.681 -2.743,-25.225 -0.013,-0.598 0.566,-1.208 0.951,-1.812 -1.55,10.786 2.239,20.256 7.022,29.907 m -620.753,36.065 c -1.778,0.637 -3.34,1.865 -4.994,-1.087 -4.161,-8.268 -4.442,-12.043 -1.107,-14.11 2.096,4.933 3.998,10.067 6.101,15.197 m 38.772,-134.257 c -0.596,0.013 -1.193,0.025 -1.794,-0.159 1.455,-15.164 3.104,-30.532 4.552,-45.893 0.396,-0.01 0.801,0.182 1.197,0.17 -1.249,15.357 -2.505,30.518 -3.955,45.882 m 31.292,165.753 c -10.495,1.825 -18.343,-2.58 -25.825,-8.386 9.16,0.792 17.381,3.996 25.825,8.386 m 17.361,-5.959 c 1.56,-10.386 10.572,-25.322 16.213,-30.823 -5.121,11.065 -5.045,23.606 -16.213,30.823 m 13.65,96.062 c -0.078,-3.583 2.221,-7.416 4.608,-7.47 3.179,-0.07 7.256,4.618 7.137,8.205 0.056,2.588 -2.463,5.429 -4.852,5.284 -3.578,0.079 -6.822,-2.837 -6.893,-6.019 M 207.441,-84.242 c -4.356,0.696 -8.715,1.389 -13.466,2.291 -0.092,-4.179 -0.163,-7.361 -0.24,-10.943 2.385,-0.054 4.567,-0.103 6.754,-0.151 7.548,-0.168 8.16,0.417 7.334,8.003 -0.194,0.203 -0.191,0.402 -0.382,0.8 m 0.58,17.112 c -4.783,-0.492 -9.167,-0.991 -13.752,-1.487 -0.061,-2.784 -0.123,-5.573 -0.173,-7.959 4.749,-0.902 9.107,-1.595 13.663,-2.296 0.093,4.181 0.171,7.762 0.262,11.742 m -664.499,260.423 c 1.518,5.742 -1.554,10.586 -5.432,15.055 -0.963,1.214 -3.517,2.666 -4.524,2.089 -3.21,-1.323 -5.072,-4.664 -4.953,-8.25 -0.027,-1.195 1.729,-2.628 3.108,-3.254 3.731,-2.073 7.868,-3.759 11.801,-5.64 M -673.175,-60.332 c 0.587,-0.412 1.18,-0.625 1.764,-1.036 11.162,19.264 26.832,35.84 35.051,56.961 -0.395,0.209 -0.588,0.411 -0.781,0.615 -12.144,-18.841 -24.088,-37.691 -36.034,-56.54 m 950.706,-153.284 c 3.18,-0.072 5.363,-0.118 7.351,-0.165 0.177,7.96 0.353,15.922 0.527,23.881 -2.979,0.067 -5.165,0.112 -7.351,0.165 -0.176,-7.961 -0.345,-15.723 -0.527,-23.881 m -15.817,21.853 c 0.673,-5.589 0.951,-10.972 2.032,-15.973 0.87,-5.595 1.462,-5.809 8.035,-5.155 -0.238,7.172 -0.472,14.544 -0.698,22.311 -3.191,-0.523 -5.778,-0.667 -9.369,-1.183 m 19.911,37.387 c -2.408,-0.941 -5.935,1.327 -5.832,-3.058 0.211,-8.364 0.825,-16.544 1.239,-24.715 2.982,-0.063 5.169,-0.113 7.55,-0.167 -0.983,9.381 -1.98,18.362 -2.957,27.94 m -918.884,46.26 c 1.28,-5.006 2.572,-9.417 3.47,-13.817 1.799,-8.598 1.601,-8.594 10.367,-7.596 0.198,-0.005 0.401,0.192 1.211,0.771 -1.226,7.592 -2.444,15.385 -3.458,23.372 -4.599,-1.095 -7.997,-2.016 -11.59,-2.73 m -14.598,-3.86 c 0.827,-7.581 1.657,-14.968 2.481,-22.751 4.199,1.302 8.002,2.411 12.41,3.909 -1.825,7.405 -3.265,14.206 -4.9,21.21 -3.397,-0.921 -6.395,-1.649 -9.991,-2.368 m 14.095,8.052 c 3.19,0.526 5.984,1.063 8.584,1.799 1.003,0.376 2.434,2.136 2.253,2.938 -1.247,6.598 -2.695,13.002 -4.135,19.804 -3.783,-0.318 -6.971,-0.642 -10.554,-0.962 1.407,-8.195 2.627,-15.986 3.852,-23.579 m 657.549,-61.965 c 0.091,13.139 0.971,25.859 -2.121,38.869 -2.908,12.408 -3.813,25.371 -5.518,38.153 -0.397,0.008 -0.795,0.018 -1.192,0.026 0.597,-8.975 1.199,-17.747 1.798,-26.522 0.798,-8.978 1.393,-17.948 2.191,-26.727 0.818,-8.18 -0.163,-16.524 4.842,-23.799 m 249.289,10.4 c -2.981,0.067 -5.761,0.129 -8.543,0.189 0.381,-9.765 0.764,-19.332 0.939,-29.491 3.59,0.519 6.38,0.854 9.169,1.195 -0.581,9.567 -0.977,18.734 -1.565,28.107 m -710.969,343.084 c 1.831,1.951 3.862,3.897 5.5,6.05 3.069,3.913 4.758,8.457 3.878,13.654 -0.535,2.797 -2.101,3.828 -5.103,2.898 -8.811,-2.989 -12.308,-8.286 -11.932,-18.253 2.159,-1.239 4.512,-2.687 7.657,-4.349 M -656.154,-81.616 c 1.188,-9.183 2.396,-17.573 3.586,-26.557 2.998,0.728 5.591,1.068 8.193,2.006 0.802,0.182 1.831,1.751 1.848,2.55 -0.827,7.58 -1.852,15.169 -2.673,22.952 -3.786,-0.311 -6.971,-0.639 -10.954,-0.951 m 297.135,169.814 c 1.712,-3.62 3.224,-7.04 4.554,-9.856 7.378,1.031 14.353,1.873 22.325,2.889 -1.677,5.015 -3.164,9.627 -4.662,13.841 -7.805,-2.414 -14.811,-4.649 -22.217,-6.874 m -82.418,84.057 c -3.247,-2.916 -3.644,-2.906 -3.14,-7.098 0.462,-5.984 1.123,-12.17 2.184,-18.168 0.713,-3.598 3.451,-5.648 7.041,-5.134 1.196,0.174 2.834,2.328 2.866,3.723 1.019,10.127 0.638,19.894 -8.951,26.677 m -19.392,12.973 c -1.479,5.01 -4.827,6.479 -9.605,6.187 -3.584,-0.32 -7.147,0.356 -10.729,0.238 -2.386,-0.148 -4.787,-0.891 -6.604,-2.044 -2.016,-1.352 -3.26,-3.71 -4.895,-5.666 2.558,-1.252 4.896,-3.293 7.675,-3.556 4.954,-0.706 10.324,-0.626 15.293,-0.537 3.976,0.111 7.77,0.824 8.865,5.378 m -2.026,-10.705 c -4.416,-1.897 -9.02,-3.385 -13.045,-5.684 -5.428,-2.669 -9.498,-6.96 -11.815,-12.88 -1.265,-3.355 0.068,-5.976 3.065,-5.245 4.198,1.103 8.796,2.196 11.837,4.914 3.858,3.697 6.162,9.022 9.636,13.328 1.837,2.147 1.873,3.739 0.322,5.567 m 4.01,-7.459 c -1.255,-2.759 -2.703,-5.316 -3.562,-8.282 -1.108,-5.151 -2.414,-10.298 -2.727,-15.47 -0.062,-2.785 1.257,-5.999 4.822,-6.478 3.367,-0.67 4.034,2.498 5.07,4.469 3.744,7.481 4.321,15.633 4.299,23.597 -2.569,0.653 -4.741,1.3 -7.902,2.164 m 29.01,17.478 c -2.8,-0.736 -5.796,-1.465 -8.605,-2.599 -0.603,-0.185 -1.047,-2.364 -0.66,-2.771 4.681,-4.088 9.365,-7.972 13.849,-12.055 2.342,-1.845 5.103,-2.901 7.729,-0.969 3.232,2.321 5.691,5.651 4.983,9.646 -0.351,2.199 -2.678,4.64 -4.648,5.479 -3.939,1.681 -8.101,2.171 -12.648,3.269 M 265.847,-85.734 c -6.809,-2.24 -12.822,-4.493 -19.029,-6.549 1.281,-5.004 2.552,-10.608 4.201,-16.816 6.21,2.252 12.219,4.307 18.032,6.372 -1.068,5.796 -2.139,11.196 -3.204,16.993 M -86.721,150.252 c -4.722,2.295 -4.845,5.682 -5.368,9.081 -0.877,5.394 -1.547,10.982 -2.217,16.574 -2.785,-0.138 -5.368,-0.081 -7.956,-0.223 2.961,-9.822 5.738,-19.242 8.497,-29.257 3.592,0.716 7.189,1.432 10.782,2.35 0.603,0.185 1.621,1.159 1.639,1.954 0.792,8.943 1.391,18.087 -1.189,27.301 -2.596,-0.536 -4.993,-1.082 -7.389,-1.627 1.196,-8.786 3.4,-16.998 3.201,-26.153 m -462.541,-260.916 c -0.835,7.185 -1.687,13.575 -2.528,20.563 -6.585,-1.248 -12.576,-2.509 -18.568,-3.77 0.274,-5.582 0.756,-10.769 1.035,-16.149 0.149,-2.193 0.291,-4.784 3.487,-4.061 5.586,0.873 10.981,2.146 16.574,3.417 m 443.186,284.642 c -2.402,-0.745 -5.002,-1.481 -8.403,-2.403 1.882,-4.82 3.772,-9.244 5.66,-13.864 1.312,-3.414 2.829,-6.832 0.965,-10.175 -0.601,-0.186 -1.203,-0.371 -1.603,-0.563 -3.012,7.633 -6.021,15.265 -9.027,23.099 -2.605,-0.74 -5.396,-1.276 -9.393,-2.182 3.465,-5.056 6.552,-9.305 9.435,-13.75 1.158,-1.617 1.913,-3.425 2.467,-5.229 0.757,-1.809 1.111,-3.806 1.857,-6.016 5.788,1.067 11.183,2.342 15.772,3.234 -2.768,9.621 -5.153,18.633 -7.73,27.849 m -421.77,-260.032 c -6.58,-0.85 -13.157,-1.698 -19.933,-2.544 1.022,-7.587 1.868,-14.378 2.912,-21.166 6.978,1.036 13.158,1.894 19.742,2.945 -1.035,7.191 -1.871,14.375 -2.721,20.765 m -43.206,-3.222 c 5.987,1.062 11.571,1.936 17.164,3.201 0.802,0.182 1.634,1.956 1.455,2.757 -1.054,6.397 -2.306,12.595 -3.546,19.391 -6.792,-1.442 -13.18,-2.695 -19.568,-3.945 1.623,-7.405 3.062,-14.403 4.495,-21.404 m 827.836,34.206 c -4.403,-1.297 -8.798,-2.393 -13.993,-3.672 1.177,-9.782 2.36,-19.166 3.533,-28.951 5.214,2.078 9.433,3.976 14.04,5.663 3.404,1.122 3.642,2.907 2.712,5.914 -2.23,6.82 -4.069,13.628 -6.292,21.046 m -787.41,-3.846 c -7.391,-1.626 -14.18,-3.068 -21.369,-4.502 1.432,-7.201 2.672,-13.995 3.922,-20.394 6.772,0.647 13.15,1.302 20.319,1.938 -0.836,7.185 -1.862,14.774 -2.872,22.958 m 110.711,-18.181 c 7.419,3.021 15.485,-0.744 22.148,3.889 -2.031,7.015 -4.068,13.827 -6.104,20.641 -6.768,-0.447 -13.14,-0.902 -20.302,-1.34 1.416,-7.798 2.842,-15.195 4.258,-23.19 m 702.144,-22.939 c -1.23,16.355 -2.667,32.315 -3.885,49.067 -5.382,-0.68 -10.17,-1.368 -15.951,-2.235 2.586,-8.818 4.995,-16.835 7.404,-24.653 2.556,-1.253 6.427,3.043 7.514,-1.759 1.105,-4.007 -3.84,-2.902 -5.469,-4.659 1.068,-5.597 2.142,-10.997 3.406,-16.799 2.193,0.351 3.991,0.709 6.981,1.038 M -576.852,44.05 c -3.348,-7.692 -6.503,-15.584 -9.853,-23.276 -0.84,-1.973 -0.067,-2.984 1.499,-4.015 3.13,-2.259 5.856,-4.909 8.988,-7.167 1.167,-1.02 2.938,-1.856 4.115,-2.481 3.554,7.885 6.895,15.177 10.648,23.057 -4.68,4.087 -9.553,8.575 -15.397,13.882 m 521.378,9.146 c -0.056,-2.587 -0.094,-4.379 0.065,-6.175 1.935,-11.192 3.677,-22.38 5.613,-33.572 0.182,-0.801 1.151,-2.017 1.747,-2.032 4.564,-0.298 8.942,-0.197 13.511,-0.298 -2.28,13.787 -4.572,26.98 -7.065,40.177 -0.176,0.998 -1.742,2.226 -2.731,2.248 -3.577,0.081 -7.163,-0.238 -11.14,-0.348 m 46.121,-98.583 c -1.58,18.353 -3.17,36.307 -4.787,53.266 -4.986,-0.885 -9.575,-1.579 -14.359,-2.271 3.789,-17.403 7.379,-34.808 11.164,-52.408 2.994,0.531 5.788,1.062 7.982,1.413 m -386.003,-35.64 c -6.779,-0.844 -12.757,-1.708 -18.938,-2.567 -2.992,-0.333 -5.193,-1.076 -4.487,-5.078 1.245,-6.597 2.292,-13.189 3.164,-18.783 8.343,-0.184 16.092,-0.358 25.229,-0.56 -1.964,9.997 -3.364,18.591 -4.968,26.988 m -50.447,-34.122 c 8.782,1.596 17.369,3.396 25.953,4.999 -1.402,8.594 -2.826,16.188 -4.052,23.584 -8.575,-1.207 -16.552,-2.421 -24.926,-3.628 0.831,-7.387 1.842,-15.574 3.025,-24.955 m -101.084,-103.878 c -3.663,23.178 -7.53,45.957 -11.396,68.939 -3.394,-0.718 -5.992,-1.259 -8.785,-1.792 3.275,-22.772 6.555,-45.143 9.828,-67.914 3.587,0.319 6.57,0.453 10.353,0.767 m 509.32,273.019 c 2.142,-10.997 4.316,-20.604 6.087,-30.396 2.464,-14.39 0.491,-13.751 15.871,-10.309 0.198,-0.004 0.204,0.195 0,0 -1.078,14.16 -1.961,28.118 -3.04,42.279 -5.973,-0.465 -11.952,-1.133 -18.918,-1.574 M -449.295,-84.21 c 7.001,1.835 13.993,3.471 20.991,5.308 1.999,0.552 3.793,0.71 3.263,3.709 -1.636,7.006 -3.067,14.204 -4.497,21.406 -7.948,0.174 -16.094,0.356 -24.837,0.55 1.757,-10.593 3.314,-20.981 5.08,-30.973 m 153.058,18.107 c -1.38,9.588 -2.384,18.169 -3.581,26.76 -9.371,-1.186 -18.938,-2.369 -28.307,-3.554 1.812,-8.003 3.626,-15.811 5.642,-23.62 0.184,-0.601 1.354,-1.621 1.954,-1.435 7.966,0.619 16.127,1.236 24.292,1.849 m 5.813,2.261 c 10.531,-0.234 20.465,-0.456 30.793,-0.683 -1.76,10.192 -3.335,19.785 -5.102,29.98 -9.765,-1.18 -19.331,-2.362 -29.493,-3.53 1.379,-9.388 2.586,-17.775 3.802,-25.767 M -350.22,45.594 c 10.571,1.56 20.941,3.121 31.317,4.881 0.791,-0.017 1.838,2.349 1.462,3.354 -1.613,7.8 -3.43,15.604 -5.252,23.21 -10.558,-1.159 -20.119,-2.141 -29.886,-3.318 0.782,-9.574 1.577,-18.552 2.359,-28.127 M 25.061,72.711 c -5.067,13.652 -9.94,26.904 -15.017,39.955 -7.819,-3.01 -15.236,-5.835 -22.459,-8.858 5.709,-11.476 11.419,-22.952 17.508,-35.233 5.991,1.262 13.176,2.698 19.968,4.136 m -342.33,-182.148 c 9.16,0.79 17.922,1.594 27.287,2.58 -4.713,11.652 -0.653,24.502 -5.372,35.758 -8.771,-1 -16.738,-1.818 -25.104,-2.629 0.934,-11.77 2.064,-23.541 3.189,-35.709 m -254.184,-42.944 c -1.792,-0.162 -2.992,-0.533 -4.381,-0.303 -3.368,0.274 -3.808,-1.507 -3.071,-4.113 1.458,-6.004 3.312,-12.018 4.574,-18.019 1.239,-6.799 2.082,-13.585 3.123,-20.378 -0.395,0.007 -0.996,-0.178 -1.397,-0.366 -3.869,13.821 -7.739,27.644 -11.606,41.47 -1.802,-0.558 -3.602,-1.116 -6.399,-1.849 5.28,-21.82 10.368,-43.436 15.64,-65.652 3.991,0.708 8.38,1.406 13.166,2.096 -3.279,22.573 -6.564,44.745 -9.649,67.114 m 314.731,48.567 c -0.951,10.971 -1.893,22.143 -3.045,33.119 -9.931,0.22 -19.469,0.43 -29.004,0.644 0.502,-4.194 1.023,-7.588 1.54,-11.184 0.833,-7.384 1.658,-14.968 2.687,-22.359 0.173,-1.198 1.526,-2.821 2.321,-2.838 8.528,-0.985 17.089,-0.379 25.501,2.618 m 170.177,217.231 c -2.373,9.607 -4.761,18.419 -6.944,27.628 -9.172,-1.39 -18.747,-2.971 -28.324,-4.547 -1.435,-11.118 -2.687,-22.639 -4.138,-34.353 13.201,3.688 26.202,7.382 39.406,11.272 m 63.436,-160.689 c -1.968,9.798 -3.358,18.987 -5.338,28.192 -1.618,7.801 -3.439,15.406 -5.252,23.213 -0.177,0.999 -1.337,2.418 -2.335,2.44 -4.16,0.49 -8.535,0.388 -12.907,0.484 1.153,-19.734 2.317,-39.072 3.467,-59.008 7.989,1.614 14.776,3.056 22.365,4.679 m -161.645,-55.946 c 2.252,-6.022 5.113,-11.463 6.18,-17.259 2.502,-12.599 4.214,-25.178 5.926,-37.561 0.87,-5.596 1.141,-11.375 1.415,-16.958 0.754,-10.768 1.515,-21.337 2.273,-32.105 3.573,-0.08 7.15,-0.156 11.124,-0.247 -6.959,35.994 -4.196,70.974 5.321,105.805 -9.956,-0.776 -9.562,-0.983 -10.723,-8.523 -0.692,-4.168 -0.98,-8.341 -1.864,-12.304 -0.428,-1.382 -2.041,-2.542 -3.066,-3.911 -1.365,1.225 -3.332,2.262 -3.894,3.668 -1.693,4.419 -2.583,9.215 -4.073,13.628 -1.848,6.214 -1.848,6.214 -8.619,5.767 M 242.423,59.53 c -4.516,29.568 -9.047,58.341 -13.567,87.708 -6.783,-1.244 -12.968,-2.302 -19.358,-3.554 8.926,-27.874 17.264,-55.335 19.417,-83.854 4.37,-0.099 8.739,-0.195 13.508,-0.3 M 84.863,-99.439 c 3.427,-6.848 7.057,-13.495 10.089,-20.133 2.471,-5.234 4.736,-10.66 6.799,-16.08 2.815,-7.631 1.642,-15.765 2.061,-23.741 0.716,-12.56 2.027,-25.131 2.937,-37.893 0.51,-3.994 1.019,-7.985 1.532,-11.779 4.772,0.092 8.949,0.197 13.72,0.291 -0.721,3.401 -1.25,6.397 -1.779,9.397 -1.587,9.194 -3.168,18.587 -4.747,27.976 -0.714,3.803 -2.024,7.416 -2.337,11.202 -0.582,9.773 -0.962,19.534 -0.945,29.292 0.072,3.183 0.942,6.55 2.199,9.509 2.091,4.73 4.976,9.245 7.663,13.963 -4.748,1.102 -9.099,1.994 -13.846,3.097 -0.865,-3.165 -1.73,-6.333 -2.788,-9.294 -0.423,-1.187 -1.847,-2.55 -3.044,-2.721 -0.995,0.02 -2.355,1.245 -3.329,2.263 -0.577,0.81 -0.549,2.002 -0.925,3.007 -1.875,5.218 -3.741,10.634 -5.809,16.054 -2.414,-1.338 -4.628,-2.682 -7.451,-4.41 m -163.877,4.826 c 0.988,-9.178 2.177,-18.365 3.362,-27.749 2.245,-15.379 5.089,-30.574 6.936,-45.947 0.995,-8.782 0.604,-17.535 0.803,-26.496 0.109,-3.987 0.619,-7.978 0.722,-12.362 8.153,0.219 15.908,0.443 23.865,0.667 0.018,0.795 0.235,1.584 0.054,2.384 -1.156,10.581 -2.112,21.353 -3.869,31.744 -2.076,13.984 -4.751,27.983 -7.024,41.966 -0.357,1.801 -0.52,3.597 -0.677,5.393 -1.169,9.982 -2.142,19.959 -3.511,29.943 0.019,0.795 -1.744,2.028 -2.539,2.045 -5.967,-0.265 -11.945,-0.928 -18.122,-1.588 m 60.988,196.355 C -57.074,88.671 -94.594,72.979 -133.802,61.701 c -0.04,-1.791 -0.285,-3.974 -0.544,-6.557 2.792,0.335 4.976,0.287 7.368,0.633 5.777,0.47 11.556,1.137 17.334,1.806 12.751,1.309 25.504,2.818 38.247,3.53 5.375,0.28 10.379,2.16 15.949,2.237 10.738,0.158 21.534,3.106 32.303,4.66 2.794,0.533 6.998,1.834 8.556,0.406 4.687,-3.886 8.921,-1.193 13.888,-1.104 -5.898,11.876 -11.611,23.153 -17.325,34.43 M -372.553,-137.48 c 4,-25.973 7.798,-51.938 11.776,-78.709 16.734,1.621 32.86,2.858 49.39,4.28 -6.361,27.022 -12.536,53.242 -18.721,79.264 -14.15,-1.678 -27.699,-3.172 -42.445,-4.835 m 291.21,252.372 c 3.795,0.913 6.999,1.837 10.194,2.562 14.783,3.256 29.755,6.309 44.547,9.963 8.998,2.386 17.809,5.379 26.809,7.965 1.205,0.374 2.564,-0.852 3.948,-1.28 -0.819,-0.978 -1.643,-2.551 -2.845,-2.922 -5.418,-2.271 -11.023,-4.138 -16.831,-6.002 -6.202,-1.851 -12.594,-3.302 -18.992,-4.954 -5.797,-1.465 -11.593,-2.928 -17.793,-4.579 1.508,-3.819 3.025,-7.04 4.145,-10.447 0.363,-1.402 -0.098,-4.379 -0.9,-4.759 -2.411,-1.142 -3.357,1.07 -3.909,3.074 -1.107,3.808 -2.417,7.619 -3.716,11.827 -23.793,-6.24 -46.988,-12.495 -70.385,-18.944 -1.591,-8.925 -3.182,-18.048 -4.996,-28.162 47.289,17.07 94.174,33.948 141.658,51.012 -2.554,10.211 -4.932,19.623 -7.496,29.435 -10.951,-0.752 -21.7,-1.509 -33.25,-2.448 1.278,-5.006 2.375,-9.408 3.278,-13.611 0.17,-1.197 -0.453,-2.38 -0.876,-3.564 -1.187,0.225 -2.775,0.261 -3.355,1.067 -1.164,1.424 -1.916,3.229 -2.28,4.832 -0.544,2.401 -0.688,4.793 -0.833,7.186 -0.134,2.989 -1.291,4.607 -4.675,4.283 -11.556,-1.137 -23.296,-1.872 -34.846,-2.808 -5.18,-0.483 -10.172,-1.37 -15.95,-2.036 3.17,-9.43 6.164,-17.859 9.349,-26.69 M 265.28,-30.371 c -1.894,-4.738 -4.883,-5.07 -8.058,-5.001 -16.902,-0.219 -33.802,-0.442 -50.699,-0.465 -2.185,0.048 -4.369,0.097 -6.754,0.148 -1.977,-8.517 -4.145,-16.63 -6.114,-24.751 0.394,-0.206 0.788,-0.416 0.987,-0.421 14.365,2.473 28.727,4.74 43.099,7.607 5.991,1.262 11.811,3.719 18,4.975 9.386,1.982 18.812,5.758 29.254,1.541 -2.926,11.614 -5.456,22.819 -8.392,34.032 -1.457,6.006 -4.107,12.038 -4.765,18.225 -1.52,12.18 -1.842,24.532 -2.762,36.895 -0.494,4.591 -1.585,9.195 -2.281,13.592 -1.194,0.027 -1.587,0.233 -1.79,0.037 -16.177,-3.423 -32.86,-2.855 -49.384,-4.081 -2.191,-0.149 -2.805,-0.933 -3.047,-2.92 -1.177,-8.335 -2.56,-16.864 -3.739,-25.199 -0.699,-4.766 -1.601,-9.524 -2.309,-14.485 13.284,-1.69 25.628,-0.767 38.195,1.343 5.585,0.873 11.161,1.344 16.935,1.815 1.197,-0.027 2.554,-1.449 3.932,-2.08 -1.212,-0.769 -2.432,-2.135 -3.83,-2.302 C 256.176,7.46 250.604,7.185 245.221,6.312 232.257,4.206 219.117,3.306 205.844,5.39 c -0.701,-4.763 -1.407,-9.724 -2.337,-15.875 4.965,-0.111 9.926,-0.62 14.899,-0.33 14.331,0.877 28.669,2.152 43.006,3.226 2.19,0.15 4.575,0.097 6.756,-0.149 0.795,-0.019 2.166,-0.845 2.347,-1.644 -0.013,-0.599 -0.64,-1.978 -1.445,-2.359 -0.81,-0.778 -2.01,-1.148 -3.207,-1.322 -6.77,-0.447 -13.536,-0.895 -20.306,-1.343 -8.557,-0.605 -17.116,-1.011 -25.67,-1.421 -5.772,-0.268 -11.75,-0.933 -17.45,1.981 -0.714,-5.359 -1.225,-10.524 -1.945,-16.085 1.193,-0.026 1.585,-0.233 2.182,-0.248 18.885,0.179 37.78,0.557 56.665,0.734 1.788,-0.038 3.762,-0.678 5.941,-0.926 m -418.092,-12.63 c -2.04,-2.345 -3.495,-5.298 -1.592,-9.124 0.373,-1.004 0.746,-2.206 0.529,-2.997 -0.23,-1.39 -1.066,-3.364 -1.861,-3.346 -1.201,-0.171 -3.168,0.67 -3.743,1.677 -3.628,6.651 -4.839,14.84 1.25,20.478 2.638,2.534 5.476,5.056 8.311,7.382 1.814,1.155 2.232,2.142 1.287,4.155 -1.146,2.216 -2.306,3.635 -4.457,5.273 -3.912,2.876 -6.323,1.735 -9.355,-0.589 -0.203,-0.195 -0.608,-0.582 -1.008,-0.573 -0.993,0.023 -2.778,0.061 -2.966,0.663 -0.58,0.81 -0.726,3.204 -0.122,3.387 3.222,1.918 6.458,4.437 9.643,4.564 3.969,-0.089 5.59,1.27 7.043,4.025 4.95,8.055 3.75,16.839 1.746,25.049 -1.461,5.806 -9.892,11.169 -15.862,10.705 -2.187,0.047 -4.026,-2.103 -6.014,-2.256 -4.385,-0.501 -7.618,-2.818 -10.27,-5.946 -6.721,-7.415 -7.309,-15.964 -5.322,-24.968 1.081,-5 2.978,-9.025 8.723,-10.147 1.98,-0.244 4.343,-1.291 3.486,-4.061 -0.859,-2.966 -3.236,-2.516 -5.604,-1.866 -5.524,1.913 -10.32,0.826 -14.791,-3.455 -4.473,-4.679 -6.779,-10.005 -4.287,-14.241 3.457,-5.452 3.852,-14.618 14.224,-12.859 1,0.18 2.355,-1.444 3.727,-2.27 -0.814,-0.98 -1.25,-2.563 -2.452,-3.132 -5.043,-3.277 -11.183,-2.34 -15.855,2.14 -3.889,3.873 -9.055,3.986 -13.122,-0.105 -1.826,-1.752 -3.265,-3.907 -4.895,-5.666 -7.942,-8.581 -2.438,-20.253 4.598,-25.787 9.77,-7.58 21.881,-8.251 33.581,-9.501 9.717,-1.015 19.488,0.363 28.69,3.142 12.005,3.519 21.888,9.87 24.375,23.554 1.801,9.515 1.194,18.091 -6.598,25.235 -4.674,4.282 -10.044,4.2 -13.934,-0.89 -1.228,-1.563 -2.468,-3.726 -4.622,-2.283 -1.175,0.82 -1.721,3.024 -2.481,4.633 m 382.803,-19.241 c -3.188,-0.327 -6.97,-0.639 -10.962,-1.35 -2.791,-0.335 -3.623,-1.91 -3.289,-4.902 0.605,-8.576 1.012,-17.149 1.219,-25.911 0.09,-4.981 -1.941,-6.727 -7.111,-6.811 -1.785,0.038 -3.766,0.48 -5.554,0.518 -2.778,0.065 -5.766,-0.069 -8.55,-0.204 -2.39,-0.148 -3.016,-1.529 -3.065,-3.716 0.077,-5.576 -0.046,-11.147 -0.171,-16.72 -0.097,-4.381 -0.197,-8.954 -0.313,-14.131 10.771,1.552 20.536,2.731 30.504,4.102 4.589,0.696 6.945,-0.553 7.453,-4.547 2.294,-22.149 4.582,-44.5 6.875,-66.649 0.166,-1.396 0.53,-3 0.104,-4.385 -0.423,-1.181 -1.862,-3.143 -2.658,-3.125 -1.388,0.031 -2.948,1.46 -3.712,2.669 -0.767,1.412 -0.926,3.206 -1.087,5.001 -1.675,13.977 -3.16,27.745 -4.841,41.722 -0.824,7.583 -1.853,14.973 -2.878,22.561 -10.358,-0.963 -19.92,-1.946 -29.888,-3.119 0.087,-23.099 3.169,-45.664 6.027,-69.222 20.064,-0.446 39.735,-0.88 59.401,-1.317 -0.485,4.987 -1.16,10.378 -1.644,15.567 -0.697,13.354 -1.198,26.706 -1.896,40.059 -0.322,3.395 0.725,5.762 4.313,6.278 1.996,0.353 3.986,0.506 5.972,0.462 5.769,0.073 11.33,-0.05 17.29,-0.182 -0.265,14.939 -0.36,28.677 -0.647,42.62 -3.2,-0.924 -6.205,-1.852 -9.207,-2.782 -7.413,-2.62 -14.822,-5.244 -22.239,-8.068 -3.208,-1.122 -5.366,0.121 -5.882,3.713 -0.158,1.797 0.079,3.585 -0.279,5.383 -1.437,7 -2.876,13.802 -4.515,20.607 -0.715,3.601 -1.232,7.196 -2.35,10.607 -1.677,5.014 -3.96,9.644 -6.42,15.272 m -833.404,91.549 c -5.356,-8.442 -9.893,-15.908 -14.818,-22.966 -7.171,-9.597 -15.123,-18.575 -20.334,-29.611 -2.502,-5.321 -6.972,-9.602 -10.254,-14.309 -5.748,-8.235 -11.298,-16.473 -16.843,-24.514 -2.264,-3.532 -4.328,-7.071 -7.208,-11.386 6.173,0.46 11.35,0.94 16.53,1.424 10.559,1.161 21.319,2.316 31.881,3.474 19.128,2.166 38.097,6.124 56.694,11.087 7.003,2.036 13.986,3.276 20.979,4.91 1.203,0.376 2.403,0.746 3.403,1.122 8.618,3.191 17.416,5.584 26.764,5.776 3.376,-0.074 6.762,0.248 10.741,0.357 -0.777,0.817 -0.971,1.018 -1.167,1.222 -7.624,5.746 -15.051,11.484 -22.877,17.034 -10.174,7.393 -20.753,14.399 -31.13,21.596 -6.849,4.732 -13.499,9.657 -20.152,14.384 -3.32,2.661 -6.025,6.303 -10.987,6.613 -0.397,0.01 -1.373,0.829 -1.559,1.428 -0.659,6.186 -7.196,7.129 -9.663,12.359 m 90.189,-245.099 c -0.121,3.584 -0.26,6.176 -0.595,8.972 -1.667,14.57 -2.533,29.324 -4.993,43.912 -1.927,11.789 -4.452,23.395 -4.785,35.347 -0.091,4.782 -0.579,9.77 -0.87,14.555 -2.996,-0.533 -5.39,-1.077 -7.784,-1.422 -10.384,-2.155 -20.765,-4.119 -30.948,-6.28 -3.391,-0.524 -6.784,-1.245 -10.169,-1.567 -2.586,0.06 -4.923,2.102 -3.093,4.05 2.439,2.536 1.299,4.948 1.156,7.341 -0.681,14.149 -2.562,27.931 -6.44,41.354 -14.579,-3.057 -28.953,-5.927 -43.333,-8.991 -0.007,-0.399 -0.216,-0.793 -0.025,-1.195 3.235,-15.403 6.274,-30.8 9.71,-46.204 1.457,-6.01 -0.817,-10.137 -6.804,-11.2 -8.982,-1.593 -17.765,-3.391 -26.943,-4.979 -0.05,-2.188 -0.086,-3.78 0.078,-5.374 1.054,-15.156 2.312,-30.317 3.566,-45.476 0.788,-9.377 2.372,-18.568 2.762,-27.936 0.398,-8.968 1.233,-7.194 7.996,-6.946 0.204,0.195 0.601,0.188 0.8,0.182 9.77,1.375 19.544,2.947 29.308,4.127 7.175,0.838 14.543,1.47 21.916,2.302 -0.512,3.797 -0.632,7.382 -1.545,10.984 -2.907,12.408 -6.616,24.436 -9.522,36.847 -1.449,6.404 -2.296,12.991 -3.145,19.583 -0.173,1.196 0.656,2.768 1.474,3.746 0.411,0.591 2.593,0.34 3.173,-0.267 1.737,-2.427 3.745,-1.477 5.944,-0.927 5.598,1.466 11.191,2.738 16.978,3.801 3.595,0.719 7.364,0.437 10.763,1.355 4.198,0.901 5.381,0.676 6.282,-3.725 1.096,-4.4 1.787,-8.997 2.68,-13.597 1.736,-11.383 3.668,-22.777 5.406,-34.165 1.038,-6.991 2.077,-13.984 3.105,-21.371 9.562,0.979 18.535,2.177 27.897,3.164 M 66.597,27.393 c 1.404,0.566 2.812,1.331 4.214,1.899 4.419,2.091 8.841,4.183 13.449,5.87 0.801,0.181 2.348,-1.644 3.722,-2.47 -1.014,-0.971 -2.035,-2.145 -3.24,-2.716 C 83.536,29.408 82.15,29.634 80.946,29.067 63.088,21.499 54.585,-3.399 66.349,-19.788 c 2.12,-3.035 3.889,-3.871 7.112,-1.951 2.42,1.539 5.025,2.478 7.626,3.216 0.996,0.177 2.759,-1.058 3.336,-1.865 0.382,-0.803 -0.274,-3.378 -0.874,-3.565 -3.402,-0.92 -5.061,-4.267 -7.88,-5.797 -10.247,-4.952 -13.22,-13.643 -13.647,-23.988 -0.136,-6.168 -0.268,-12.14 -0.406,-18.309 -0.184,-8.36 5.781,-17.252 13.68,-19.617 1.579,-0.432 3.576,-0.077 5.177,0.484 2.809,1.132 5.43,2.865 8.24,3.998 6.82,2.836 11.486,7.113 10.867,15.091 -0.146,2.39 -0.89,4.797 -1.039,6.99 0.031,1.393 1.052,2.564 1.475,3.752 1.186,-0.425 2.768,-0.66 3.341,-1.668 1.15,-2.017 2.488,-4.436 2.437,-6.824 0.444,-6.778 -0.3,-13.532 -6.179,-18.578 0.382,-0.805 0.768,-1.412 1.144,-2.214 0.584,-0.612 1.361,-1.427 1.943,-2.036 6.428,-5.916 14.138,-7.88 22.481,-8.264 3.771,-0.081 8.128,-0.776 11.339,0.547 9.836,4.359 18.135,11.146 22.729,21.197 4.385,9.46 2.615,19.256 -1.75,28.711 -0.576,0.806 -1.355,1.621 -2.34,2.04 -5.1,3.102 -10.215,5.403 -16.401,4.347 -1.397,-0.368 -3.145,1.663 -4.71,2.693 1.023,1.37 1.856,3.142 3.275,4.305 1.012,0.975 2.807,1.134 4.213,1.9 10.701,7.527 15.516,18.371 16.986,31.08 1.2,9.134 -1.196,17.748 -6.394,25.229 -5.399,7.685 -13.226,13.235 -21.693,16.806 -7.29,2.952 -15.019,4.119 -22.835,1.105 -6.619,-2.64 -8.58,-1.404 -8.814,5.969 C 98.69,49.578 96.57,52.613 92.427,53.9 80.785,57.738 71.163,54.171 63.022,45.59 58.757,41.304 58.412,34.743 61.109,30.899 65.2,36.183 69.102,41.87 77.332,36.511 75.717,35.351 74.49,33.789 73.099,33.818 69.123,33.707 67.673,31.15 66.597,27.393 m -175.003,23.192 c 9.521,-45.802 15.466,-91.529 26.821,-135.387 6.781,0.849 13.163,1.9 19.54,2.557 3.389,0.323 7.162,0.238 8.453,-4.172 0.189,-0.601 0.98,-0.816 1.569,-1.028 2.963,-0.663 3.714,-2.872 3.852,-5.661 0.109,-3.983 0.613,-8.178 1.122,-12.171 1.174,-9.782 2.546,-19.567 3.522,-29.545 1.131,-11.771 1.868,-23.337 2.998,-35.107 0.952,-10.97 2.503,-21.757 3.452,-32.729 0.131,-2.989 0.698,-4.395 4.274,-4.477 10.72,-0.631 21.632,-1.473 32.353,-2.109 2.974,-0.264 5.759,-0.325 8.934,-0.397 -0.711,3.797 -1.629,7.203 -1.754,10.592 -1.143,11.174 -1.488,22.53 -2.828,33.908 -2.164,18.962 -4.125,38.121 -7.285,57.105 -1.92,11.99 -3.447,23.968 -3.569,36.316 -0.261,6.175 -0.715,12.556 -1.168,19.14 -1.394,-0.169 -2.984,-0.132 -4.186,-0.505 -12.58,-2.708 -24.968,-5.421 -37.55,-8.329 -4.597,-1.089 -7.329,1.161 -7.224,5.935 0.632,10.736 1.069,21.48 1.502,32.024 0.223,0.991 0.045,1.99 -0.137,2.79 -1.112,12.568 -2.433,24.942 -3.743,37.512 -0.623,7.781 -1.444,15.564 -2.273,23.148 -0.502,4.192 -0.812,8.181 -1.313,12.372 -15.12,-0.459 -30.044,-1.125 -45.362,-1.782 m -358.276,-94.193 c 3.17,-0.471 6.123,-1.728 8.715,-1.389 9.961,0.975 20.061,-0.641 29.673,2.528 0.798,0.181 1.58,-0.431 2.375,-0.448 1.382,-0.429 2.764,-0.86 4.352,-0.895 1.988,-0.044 3.979,0.112 5.97,0.269 4.781,0.49 9.902,-1.617 14.537,1.268 0.604,0.383 1.589,-0.036 2.381,-0.254 1.979,-0.439 4.139,-1.482 6.331,-1.332 7.756,0.229 15.71,0.248 23.682,1.267 12.357,1.515 24.723,3.432 37.287,5.343 15.361,2.449 30.525,5.098 46.085,7.543 9.567,1.377 19.141,2.758 28.904,3.938 4.789,0.687 9.56,0.781 14.536,1.071 -13.55,25.384 -26.916,50.371 -40.272,75.555 -0.594,0.013 -1.994,-0.356 -3.392,-0.722 -14.756,-2.063 -29.52,-4.522 -44.275,-6.585 -18.734,-2.369 -37.264,-4.348 -55.994,-6.323 -9.164,-0.993 -17.981,-4.181 -27.492,-2.974 -0.793,0.217 -2.015,-1.152 -2.828,-1.931 -6.948,-8.605 -13.313,-17.821 -20.85,-26.014 -7.125,-7.608 -14.243,-15.016 -19.419,-24.259 -4.552,-8.062 -7.916,-16.351 -10.306,-25.656 m 21.754,-76.935 c 3.699,-30.545 7.598,-60.898 11.302,-91.241 23.048,-0.312 45.225,-4.187 68.291,-3.904 -0.705,4.199 -1.022,7.788 -1.747,10.989 -1.611,8.001 -4.02,16.02 -5.232,24.006 -1.56,10.391 -2.323,20.761 -3.487,31.142 -0.698,4.395 -1.39,8.986 -2.69,13.198 -1.099,4.203 -0.68,5.193 3.694,5.296 5.766,0.07 11.534,0.141 17.313,0.807 8.568,1.007 16.952,2.614 25.522,3.619 2.393,0.344 3.405,1.117 3.654,3.502 0.225,1.189 2.05,2.742 3.042,2.72 0.994,-0.022 2.548,-1.65 2.72,-2.848 1.458,-6.005 2.708,-12.406 3.762,-18.601 3.048,-15.002 5.897,-29.997 8.742,-45.19 1.418,-7.798 2.235,-15.779 3.26,-23.368 19.13,2.166 38.054,4.132 57.183,6.102 -2.295,31.106 -4.769,63.019 -7.064,94.128 -11.545,-0.739 -22.683,-1.087 -33.831,-1.836 -7.164,-0.439 -14.336,-1.076 -21.505,-1.713 -8.761,-0.603 -10.301,1.621 -11.506,10.01 -0.173,1.196 0.053,2.389 -0.12,3.588 -0.615,8.174 -1.234,16.154 -1.852,24.132 -5.303,2.907 -1.817,7.604 -2.535,11.206 -1.634,7.003 -3.667,14.019 -5.494,21.224 -20.341,-2.934 -40.283,-5.875 -60.622,-8.807 4.611,-16.229 8.833,-32.057 13.651,-47.891 1.112,-3.608 1.258,-6.001 -2.167,-8.113 -1.003,-0.575 -1.437,-2.16 -1.459,-3.153 -0.255,-2.582 -1.675,-3.746 -4.064,-3.891 -3.975,-0.112 -7.752,-0.028 -11.531,-0.146 -4.38,-0.299 -8.75,-0.202 -13.134,-0.703 -10.569,-1.554 -20.595,-5.515 -32.096,-4.264 m 455.173,-36.375 c 0.443,-6.978 0.682,-14.152 1.323,-21.132 0.623,-7.783 1.843,-15.575 2.068,-23.345 0.217,-8.167 0.407,-8.568 8.557,-8.55 2.982,-0.066 3.404,1.12 2.463,3.528 -3.046,-2.916 -5.627,-2.861 -6.359,0.14 -0.906,3.806 -1.823,7.409 -2.134,11.197 -1.105,12.967 -1.418,25.914 -5.918,38.162 -0.147,2.191 -0.304,4.186 -0.255,6.377 -0.457,6.381 -0.516,12.554 -0.973,18.936 -0.927,11.964 -2.455,23.746 -3.389,35.516 -1.233,16.154 -2.069,32.3 -3.505,48.257 -0.609,8.377 -2.217,16.575 -3.626,24.769 -0.867,5.794 -1.926,11.79 -2.991,17.587 -0.614,-0.782 -0.832,-1.575 -0.65,-2.374 1.263,-14.76 2.529,-29.522 3.992,-44.287 2.16,-19.164 4.522,-38.131 6.489,-57.087 1.653,-15.171 2.513,-30.118 3.974,-45.086 -0.025,-0.992 0.561,-1.604 0.934,-2.608 M -346.876,97.883 c 2.606,1.138 5.212,2.076 7.628,3.417 3.416,1.714 5.195,1.278 6.507,-2.336 2.073,-5.223 3.739,-10.634 5.989,-16.856 2.198,0.548 4.991,1.084 7.791,1.818 2.8,0.735 3.762,-0.681 4.103,-3.277 1.178,-9.584 2.552,-19.369 3.713,-29.748 8.182,1.411 16.161,2.629 23.945,4.048 4.189,0.705 8.381,1.608 12.575,2.507 5.586,0.874 8.324,-1.176 9.387,-6.975 0.345,-2.398 1.484,-4.813 2.627,-7.028 4.763,-9.263 9.527,-18.728 14.484,-28.196 3.067,-5.244 6.53,-10.299 9.595,-15.543 1.538,-2.422 2.87,-5.04 4.006,-7.654 1.903,-3.824 3.405,-7.841 5.311,-11.467 2.849,-6.034 1.59,-8.995 -4.797,-10.248 -7.183,-1.232 -14.358,-2.068 -22.137,-3.29 0.724,-3.201 1.643,-6.607 2.164,-10.006 1.548,-10.984 2.699,-21.758 4.048,-32.74 2.037,-15.773 4.465,-31.757 6.105,-47.519 0.987,-9.381 1.577,-18.554 1.171,-27.901 -0.483,-12.931 0.427,-25.695 2.734,-38.288 0.874,-5.396 0.954,-10.774 1.437,-15.96 21.654,-0.479 42.713,-0.947 64.171,-1.423 -0.447,6.781 -1.085,13.96 -1.728,20.944 -0.59,9.172 -0.781,18.534 -1.77,27.713 -1.704,12.78 -3.413,25.362 -5.916,37.96 -1.075,5.599 -4.135,10.843 -6.805,16.08 -0.768,1.211 -3.536,1.872 -5.52,2.114 -14.272,1.708 -27.346,12.752 -30.617,26.564 -1.267,5.602 0.046,11.148 3.529,15.847 4.505,5.873 8.817,12.147 17.001,13.759 -2.573,9.417 2.162,16.876 5.707,24.362 1.664,3.349 6.073,5.044 9.916,7.944 -0.185,0.6 -0.345,2.396 -1.307,3.812 -3.649,5.855 -3.498,12.62 -1.974,18.758 0.893,4.36 4.155,8.072 6.824,11.794 6.977,10 16.811,14.164 28.706,12.705 1.78,-0.239 3.958,-0.685 5.326,-1.71 6.051,-5.114 12.096,-10.224 12.49,-19.393 0.175,-10.158 0.545,-20.318 -7.964,-27.697 0.192,-0.401 0.184,-0.601 0.184,-0.601 1.714,-3.423 2.812,-7.628 5.349,-9.875 2.731,-2.248 7.511,-1.756 10.649,-3.817 2.943,-1.659 5.663,-4.508 7.182,-7.728 3.238,-6.442 6.469,-13.083 8.104,-20.09 4.57,-18.017 -4.493,-32.353 -20.747,-39.357 -5.817,-2.462 -10.044,-4.758 -10.799,-11.907 -1.433,-10.92 -3.455,-21.623 -5.882,-32.321 -2.85,-12.083 -0.928,-24.074 -1.391,-36.009 -0.2,-8.954 1.585,-18.151 2.383,-27.13 0.151,-2.191 1.125,-3.01 3.314,-2.861 20.272,-0.053 40.351,0.102 60.628,0.05 3.976,0.113 7.947,-0.176 12.319,-0.273 -0.453,6.578 -1.12,12.367 -1.585,18.351 -0.44,6.98 -0.886,13.757 -1.133,20.534 -0.56,19.724 -1.923,39.066 -7.262,58.3 -2.76,10.012 -3.521,20.582 -5.485,30.781 -1.781,9.197 -3.767,18.2 -5.361,27.195 -0.871,5.395 -0.947,10.972 -2.224,16.175 -2.138,11.199 -5.075,22.214 -7.417,33.218 -2.48,13.593 -4.565,27.179 -7.047,40.772 -0.905,4.004 -2.214,7.814 -3.128,11.419 -6.172,-0.462 -11.951,-1.129 -17.72,-1.397 -5.174,-0.085 -6.32,1.929 -5.212,7.081 3.095,14.069 6.778,27.924 9.281,42.203 2.061,12.299 3.128,24.618 3.996,36.946 0.538,6.357 0.554,6.953 7.153,8.796 -2.688,4.244 -5.387,8.085 -8.081,12.129 -0.573,1.008 -1.346,2.019 -1.722,3.025 -4.519,11.447 -3.89,12.828 7.345,17.555 10.235,4.354 20.834,7.306 32.181,8.046 1.992,0.155 3.991,0.909 6.183,1.058 4.783,0.491 7.323,-1.557 7.811,-6.346 1.187,-9.383 1.971,-18.955 3.122,-29.734 6.18,0.858 12.362,1.717 18.537,2.377 2.197,0.35 4.392,0.896 6.779,0.843 15.093,-0.533 30.224,0.526 45.367,2.181 1.988,0.155 4.179,0.305 5.954,-0.332 1.775,-0.634 3.93,-2.076 4.497,-3.484 2.566,-9.813 4.534,-19.609 7.303,-29.228 3.13,-11.419 6.65,-22.846 10.379,-34.077 1.31,-3.615 3.621,-7.051 5.334,-10.473 2.465,-5.43 1.403,-8.393 -4.394,-9.855 C 20.325,65.254 14.329,63.793 8.344,62.73 5.549,62.196 5.324,61.007 5.271,58.618 4.707,42.106 4.541,25.583 6.361,9.017 7.686,-2.958 7.814,-15.106 9.343,-26.885 c 1.841,-15.572 4.484,-30.961 6.73,-46.342 2.418,-16.379 4.441,-32.75 6.864,-49.13 0.331,-2.994 1.253,-6.2 1.983,-9.201 2.702,-12.606 0.436,-25.096 0.756,-37.65 0.047,-6.968 -0.505,-13.925 1.928,-20.75 2.054,-6.019 2.503,-12.598 3.753,-18.995 23.854,0.067 47.311,0.146 70.77,0.223 -0.959,10.573 -1.92,21.145 -2.679,31.715 -0.63,7.38 -1.469,14.567 -1.105,21.925 0.483,12.93 -3.04,24.356 -9.356,35.449 -3.258,5.448 -5.708,11.475 -7.966,17.3 -1.144,2.214 -2.124,2.833 -4.695,3.291 -9.12,1.196 -17.811,3.579 -23.181,12.459 -9.581,16.341 -5.817,42.539 8.176,55.17 0.408,0.386 1.21,0.767 1.21,0.767 -4.226,6.665 -8.064,12.922 -11.902,19.176 -0.761,1.413 -1.522,3.021 -1.49,4.416 0.577,8.149 0.758,16.308 2.52,24.034 1.314,5.545 3.201,10.086 0.95,16.106 -2.057,5.821 0.472,12.335 4.55,17.023 8.967,9.956 20.197,14.484 33.658,11.996 8.709,-1.588 12.197,-5.846 15.14,-16.464 19.812,5.933 41.438,-4.9 52.999,-21.281 10.223,-14.165 12.219,-40.693 -8.515,-61.534 1.179,-0.624 2.153,-1.443 3.336,-1.866 11.829,-4.445 13.995,-14.447 14.747,-25.413 1.238,-15.958 -7.155,-26.921 -19.276,-35.809 -5.861,-4.25 -11.713,-8.303 -19.655,-7.728 -0.795,0.016 -2.007,-0.951 -2.427,-1.937 -2.899,-5.312 -6.793,-10.602 -8.109,-16.345 -1.553,-7.136 -1.729,-15.095 -1.098,-22.477 0.788,-9.373 2.966,-18.78 4.552,-27.974 1.773,-9.594 3.356,-18.988 4.735,-28.573 0.345,-2.399 1.109,-3.811 3.891,-3.871 19.282,-0.028 38.555,-0.259 58.033,-0.291 0.398,-0.009 0.998,0.175 1.995,0.354 -0.698,4.394 -1.202,8.587 -1.7,12.979 -4.633,33.153 -4.69,66.601 -2.956,100.012 0.575,8.152 1.155,16.5 1.736,24.651 0.021,0.995 0.255,2.583 -0.136,2.989 -3.305,3.261 -1.644,6.41 -0.58,9.568 5.316,15.613 6.47,31.913 9.01,47.985 3.025,19.842 6.249,39.882 9.272,59.724 1.383,8.728 2.595,9.498 11.339,9.504 1.788,-0.039 3.582,0.118 6.367,0.256 -0.639,6.983 -1.092,13.565 -2.339,19.963 -1.777,9.596 -3.756,18.995 -6.333,28.215 -2.938,11.014 -6.483,21.644 -9.624,32.267 -0.554,2 -1.499,4.214 -1.456,6.204 0.034,1.392 0.874,3.566 1.881,4.138 5.021,2.28 10.232,4.157 15.444,6.227 2.212,1.148 4.61,1.891 6.634,3.24 4.433,2.888 7.585,1.623 8.461,-3.772 0.684,-4.993 0.765,-10.171 1.848,-15.371 1.059,-5.998 3.122,-11.618 4.181,-17.614 1.42,-7.797 2.233,-15.777 3.057,-23.562 1.332,-11.577 2.079,-22.943 3.019,-34.312 0.166,-1.398 -0.056,-2.584 -0.097,-4.376 3.789,0.711 7.574,1.026 11.371,1.938 10.792,2.547 12.334,0.52 15.058,-11.288 1.072,-5.397 0.95,-10.971 1.228,-16.351 0.436,-7.176 0.476,-14.349 1.515,-21.336 1.219,-7.794 3.437,-15.409 5.45,-23.217 2.729,-11.411 5.66,-22.824 8.388,-34.233 1.274,-5.405 0.243,-6.973 -6.167,-9.22 0.805,-8.581 1.603,-17.361 2.402,-26.137 0.32,-3.589 0.836,-7.187 0.958,-10.771 -0.269,-12.141 -1.136,-24.266 -0.811,-36.617 0.58,-18.727 1.951,-37.674 2.922,-56.607 0.106,-4.385 -0.397,-8.955 -0.495,-13.532 0.029,-7.565 0.265,-14.936 -0.103,-22.495 -0.038,-1.792 -1.265,-3.357 -2.095,-4.933 -0.962,1.418 -1.929,2.634 -2.897,3.849 0.207,0.397 0.42,0.986 0.627,1.378 -17.88,0.397 -35.766,0.596 -53.439,1.387 -17.279,0.58 -34.338,2.155 -51.62,2.735 -16.485,0.565 -32.987,0.335 -49.48,0.501 -20.473,0.057 -40.736,0.507 -61.014,0.358 -18.885,0.021 -37.986,-0.948 -57.068,-0.925 -11.529,0.059 -23.23,1.311 -34.74,1.966 -5.565,0.125 -11.13,0.048 -16.695,0.171 -2.188,0.049 -4.359,0.697 -6.54,0.742 -29.417,0.055 -58.834,0.309 -88.25,0.366 -19.676,0.035 -39.363,-0.326 -59.04,-0.085 -8.941,-0.003 -17.667,0.986 -26.604,1.186 -15.1,0.335 -30.196,0.87 -45.315,0.207 -11.342,-0.545 -22.724,-2.879 -34.082,-4.221 -12.156,-1.325 -24.292,-1.851 -36.257,-3.575 -16.149,-2.232 -32.024,-1.082 -48.114,-0.526 -2.98,0.066 -5.949,0.728 -8.924,0.793 -23.036,1.109 -46.064,2.415 -69.106,3.126 -9.932,0.222 -19.68,-0.16 -29.438,-0.943 -4.179,-0.301 -8.401,-2.399 -12.788,-3.097 -7.781,-1.222 -15.749,-2.039 -23.518,-2.863 -9.566,-0.984 -18.919,-1.573 -28.683,-2.549 0.181,-0.803 0.569,-1.406 0.555,-2.005 -0.43,-1.386 -1.054,-2.765 -1.478,-3.948 -0.976,0.819 -2.547,1.65 -2.919,2.851 -1.125,3.012 -2.708,3.447 -5.695,3.112 -10.357,-0.964 -20.504,-1.334 -30.866,-2.5 -11.355,-1.141 -22.723,-2.882 -34.086,-4.422 -4.583,-0.495 -9.171,-1.188 -14.151,-1.675 0.168,-1.4 0.734,-2.804 0.31,-3.99 -0.434,-1.582 -1.262,-3.158 -1.892,-4.736 -1.365,1.225 -3.331,2.264 -3.495,3.862 -0.886,4.798 -1.175,9.781 -1.66,14.767 -0.791,9.176 -2.58,18.177 -2.378,27.331 0.413,18.706 -1.565,37.065 -4.34,55.449 -0.184,0.598 -0.372,1.199 -0.358,1.797 -1.339,11.378 -2.482,22.554 -4.22,33.94 -1.023,7.589 -2.847,14.993 -4.27,22.593 -0.737,2.605 -2.305,3.635 -5.11,2.702 -2.197,-0.547 -4.6,-1.291 -6.789,-1.442 -2.98,0.066 -4.125,2.281 -2.678,4.638 2.277,4.129 4.353,8.267 6.632,12.396 -0.193,0.204 -0.59,0.212 -0.784,0.417 -2.274,-3.933 -4.546,-7.866 -6.823,-11.795 -0.415,-0.787 -1.418,-1.364 -2.231,-2.143 -0.178,1 -0.742,2.409 -0.324,3.393 4.151,7.87 8.1,15.748 12.643,23.414 7.026,12.188 14.654,24.364 22.075,36.542 11.128,17.872 24.209,34.106 39.24,48.705 2.032,1.948 3.431,2.315 5.369,0.079 3.881,-4.266 8.168,-8.142 12.447,-12.419 2.926,6.504 5.239,12.227 7.95,17.941 1.052,2.565 2.494,4.92 3.746,7.484 1.652,2.948 3.683,4.898 7.211,2.626 1.677,3.945 3.159,8.092 5.424,11.628 1.233,1.765 4.268,4.086 6.045,3.649 3.366,-0.673 6.49,-3.131 9.427,-5.186 0.394,-0.208 -0.052,-2.39 -0.475,-3.574 -2.316,-5.722 -5.02,-11.238 -7.138,-16.966 -0.62,-1.182 0.334,-2.993 0.516,-3.793 2.814,1.53 4.823,2.48 6.636,3.437 0.15,-2.194 0.097,-4.581 0.243,-6.974 -0.017,-0.797 -0.238,-1.786 0.342,-2.398 2.323,-2.841 1.083,-5.001 -0.964,-7.744 -4.712,-6.265 -9.029,-12.739 -13.748,-19.404 2.356,-1.448 4.315,-2.685 6.471,-3.925 13.157,-7.262 25.288,-16.093 37.204,-25.515 6.05,-5.111 12.915,-9.246 19.372,-13.769 1.175,-0.824 2.549,-1.649 3.323,-2.665 1.161,-1.417 2.9,-3.643 2.476,-4.83 -0.429,-1.385 -2.842,-2.725 -4.44,-3.088 -4.795,-1.086 -9.582,-1.777 -14.371,-2.669 -1.196,-0.171 -2.393,-0.345 -3.59,-0.517 2.62,-16.385 5.248,-32.37 7.48,-48.349 0.684,-4.993 0.571,-10.166 0.858,-15.149 0.402,-8.773 0.998,-17.742 1.201,-26.506 0.43,-7.579 0.656,-15.347 0.882,-23.118 0.748,-11.165 1.493,-22.331 2.241,-33.496 0.303,-4.19 0.612,-8.178 0.913,-12.563 9.353,0.386 18.512,0.982 27.858,1.37 -0.292,4.788 -0.778,9.574 -1.076,14.163 -0.883,13.956 -1.763,28.111 -2.848,42.073 -1.457,14.964 -3.313,29.936 -4.773,44.904 -0.827,7.582 -1.059,14.953 -1.686,22.531 -1.243,15.758 -0.89,31.68 -4.124,47.283 -1.796,8.598 -1.801,17.361 -2.999,26.149 -0.664,5.986 -2.324,11.797 -2.787,17.78 -0.678,5.389 -0.752,10.968 -0.038,16.328 1.211,9.726 2.81,19.247 5.407,28.748 1.297,4.749 4.188,9.662 7.452,13.374 4.083,4.888 5.79,10.225 7.308,15.965 0.66,2.971 1.324,5.945 2.2,9.507 -6.224,-2.649 -11.847,-5.31 -17.467,-7.776 -8.225,-3.4 -16.623,-5.602 -25.363,-5.409 -1.588,0.035 -3.959,0.684 -4.334,1.688 -0.571,1.208 -0.121,3.587 0.903,4.958 7.178,9.995 27.901,21.282 43.83,13.564 0.98,-0.619 2.176,-0.448 3.562,-0.679 1.36,7.535 2.313,14.681 3.862,21.816 1.121,5.749 3.036,11.481 4.56,17.42 0.216,0.792 0.442,1.98 0.058,2.586 -2.68,4.639 -4.168,9.45 -1.85,15.174 -4.209,-1.501 -7.624,-3.017 -11.418,-3.929 -2.399,-0.544 -5.181,-0.484 -7.553,0.167 -4.342,1.294 -6.067,4.119 -4.979,8.473 1.329,6.143 4.425,11.252 9.48,15.121 1.816,1.353 3.44,2.711 5.866,4.649 -2.185,0.049 -3.78,-0.114 -5.166,0.115 -3.167,0.669 -6.34,0.936 -9.095,2.19 -7.678,3.357 -8.331,9.743 -2.244,15.384 4.865,4.27 10.1,7.341 17.217,5.592 -0.658,6.183 0.449,11.336 4.719,15.623 4.68,4.874 9.457,5.165 14.118,0.284 2.141,-2.041 3.874,-4.666 5.225,-6.488 4.436,2.888 8.483,6.184 13.109,8.47 7.626,3.415 13.895,-0.706 13.71,-9.063 -0.317,-5.37 -2.025,-10.708 -3.131,-15.859 3.955,-0.886 9.112,-1.398 13.847,-2.896 8.089,-2.769 11.332,-9.011 8.967,-16.924 -2.564,-8.304 -9.615,-12.531 -17.722,-10.557 -0.396,0.008 -0.794,0.018 -1.191,0.025 -0.103,-4.575 0,-8.957 -0.3,-13.531 -0.102,-4.579 -0.993,-8.937 -5.998,-10.619 -4.611,-1.689 -10.915,0.839 -14.003,5.091 -0.387,0.406 -0.771,1.01 -1.343,2.018 -3.129,-6.5 -5.467,-13.416 -14.977,-12.012 -0.675,-3.567 -1.147,-6.943 -1.822,-10.51 -0.014,-0.597 -0.032,-1.392 -0.243,-1.987 -4.308,-6.076 -2.887,-13.673 -5.027,-20.594 -2.338,-6.918 -2.153,-7.521 3.92,-11.634 7.242,-4.94 9.854,-12.764 12.661,-20.588 1.873,-5.219 3.344,-10.629 4.814,-16.038 0.362,-1.599 0.72,-3.399 0.487,-4.989 -0.437,-1.779 -1.683,-4.142 -3.081,-4.51 -1.205,-0.371 -3.962,0.686 -4.724,2.095 -5.972,8.696 -11.345,17.377 -16.913,26.26 -0.963,1.415 -1.323,3.216 -2.473,5.031 -0.189,-8.555 -6.857,-13.384 -10.379,-19.88 -4.763,-8.654 -5.375,-18.395 -7.175,-27.914 -0.904,-4.956 -1.81,-9.914 -1.722,-14.892 -0.099,-4.577 0.996,-8.983 1.69,-13.576 0.834,-7.186 1.871,-14.179 2.707,-21.365 1.556,-10.587 3.104,-21.373 4.26,-32.149 0.835,-7.185 0.472,-14.546 1.11,-21.726 1.247,-15.359 2.895,-30.925 4.143,-46.285 0.968,-10.174 1.931,-20.547 2.9,-30.725 0.633,-7.379 1.263,-14.761 1.698,-22.137 0.644,-6.783 0.692,-13.555 1.337,-20.338 0.293,-4.784 1.182,-9.583 1.676,-14.174 11.325,-0.25 22.054,-0.487 33.775,-0.749 -0.346,2.399 -0.305,4.19 -0.664,5.988 -1.378,9.586 -2.959,18.981 -4.336,28.569 -1.198,8.785 -2.003,17.363 -3.005,25.95 -1.683,13.773 -3.37,27.551 -5.05,41.323 -1.723,11.985 -3.447,23.969 -5.166,36.153 -1.048,6.394 -2.095,12.986 -2.948,19.578 -0.336,2.595 -1.507,3.618 -4.09,3.674 -1.788,0.038 -3.571,0.278 -5.554,0.522 -3.96,0.683 -5.684,3.71 -4.4,7.662 4.242,12.25 9.087,24.487 16.279,35.078 3.697,5.495 8.181,10.571 13.05,15.044 9.334,8.552 16.327,19.15 23.507,29.342 1.846,2.547 3.447,2.911 6.615,2.442 4.351,-0.893 9.13,-0.601 13.712,-0.104 5.774,0.47 11.372,1.936 17.152,2.606 8.773,1.199 17.54,2.199 26.309,3.199 0.799,0.181 1.598,0.361 2.792,0.534 -0.12,3.588 -0.238,7.175 -0.555,10.763 -0.49,4.791 -0.578,9.771 -1.869,14.378 -1.294,4.411 -4.191,8.257 -5.886,12.474 -0.934,2.611 -1.072,5.401 -1.808,8.206 -0.175,0.999 -0.346,2.395 -1.124,3.01 -1.939,2.234 -4.285,4.075 -6.429,5.917 -2.336,2.241 -3.07,5.044 -0.247,6.773 5.656,4.055 11.493,7.512 17.531,10.763 2.618,1.533 4.351,-0.891 5.094,-3.3 1.113,-3.608 2.424,-7.221 3.335,-11.025 0.359,-1.797 -0.085,-3.779 -0.124,-5.571 -1.56,1.427 -3.718,2.67 -4.475,4.281 -1.519,3.218 -2.437,6.822 -3.543,10.63 -2.618,-1.535 -4.837,-3.079 -7.055,-4.422 -2.213,-1.146 -4.428,-2.492 -6.442,-3.641 2.717,-3.045 5.04,-5.887 7.565,-8.531 0.777,-0.812 2.348,-1.644 3.352,-1.267 3.59,0.716 7.001,2.034 10.401,2.953"
             style="fill:#400000;fill-opacity:1;fill-rule:evenodd;stroke:none"
             id="path154"
             inkscape:connector-curvature="0" /></g><g
           id="g156"
           transform="translate(898.6025,673.9224)"><path
             d="M 0,0 C -1.565,1.23 -4.318,2.485 -4.099,3.477 -3.864,5.066 -2.017,7.612 -0.623,7.78 1.971,8.32 4.745,7.86 7.305,6.808 8.29,6.387 9.223,3.58 8.801,2.396 8.374,1.208 5.979,0.665 4.38,0.301 3.183,0.13 2.011,0.953 0.621,1.183 0.414,0.789 0.207,0.394 0,0"
             style="fill:#400000;fill-opacity:1;fill-rule:evenodd;stroke:none"
             id="path158"
             inkscape:connector-curvature="0" /></g><g
           id="g160"
           transform="translate(877.3975,685.7412)"><path
             d="M 0,0 C 0.29,4.178 2.308,5.524 5.083,5.264 7.47,5.211 10.241,4.753 10.363,1.365 10.325,-0.428 5.487,-3.505 2.918,-2.851 1.53,-2.621 0.579,-0.807 0,0"
             style="fill:#400000;fill-opacity:1;fill-rule:evenodd;stroke:none"
             id="path162"
             inkscape:connector-curvature="0" /></g><g
           id="g164"
           transform="translate(863.3174,687.25)"><path
             d="M 0,0 C 1.545,-2.025 3.109,-3.253 3.091,-4.05 2.198,-8.411 -1.948,-7.123 -4.551,-8.062 -5.152,-8.247 -6.507,-6.626 -7.489,-6.008 -5.257,-4.065 -2.835,-2.327 0,0"
             style="fill:#400000;fill-opacity:1;fill-rule:evenodd;stroke:none"
             id="path166"
             inkscape:connector-curvature="0" /></g><g
           id="g168"
           transform="translate(849.5615,685.3647)"><path
             d="M 0,0 C 1.334,-2.419 2.892,-4.048 2.672,-5.035 2.248,-6.221 0.428,-7.574 -0.77,-7.748 -1.565,-7.729 -3.305,-5.7 -3.282,-4.707 -3.257,-3.511 -1.645,-2.352 0,0"
             style="fill:#400000;fill-opacity:1;fill-rule:evenodd;stroke:none"
             id="path170"
             inkscape:connector-curvature="0" /></g><g
           id="g172"
           transform="translate(834.6475,676.1382)"><path
             d="m 0,0 c -2.414,-1.339 -3.642,-2.906 -4.628,-2.684 -1.191,0.226 -2.547,1.849 -2.719,3.047 0.019,0.794 1.847,2.548 2.643,2.53 C -3.515,2.867 -2.347,1.644 0,0"
             style="fill:#400000;fill-opacity:1;fill-rule:evenodd;stroke:none"
             id="path174"
             inkscape:connector-curvature="0" /></g><g
           id="g176"
           transform="translate(809.4209,676.897)"><path
             d="m 0,0 c -1.61,-0.96 -2.434,-2.135 -3.029,-2.123 -0.995,0.024 -1.959,1.239 -2.14,2.039 -0.187,0.601 1.037,1.967 1.83,1.95 C -2.544,1.848 -1.569,1.03 0,0"
             style="fill:#400000;fill-opacity:1;fill-rule:evenodd;stroke:none"
             id="path178"
             inkscape:connector-curvature="0" /></g><g
           id="g180"
           transform="translate(417.7725,358.8594)"><path
             d="M 0,0 C 0.034,1.59 0.259,2.781 0.087,3.978 -0.411,8.371 -0.799,8.774 -5.194,7.88 -6.189,7.704 -7.39,7.53 -8.378,7.75 -9.366,7.973 -9.94,8.979 -10.92,9.599 c 0.812,0.779 1.431,1.76 2.435,2.134 1.799,0.56 3.989,0.708 6.381,1.054 -0.349,2.201 -0.511,3.796 -0.67,5.591 -3.368,0.475 -6.346,0.737 -9.512,1.407 -0.791,0.215 -1.557,1.427 -2.137,2.237 0.808,0.578 1.629,1.754 2.424,1.736 2.783,-0.061 5.551,-0.718 6.936,-0.95 2.045,2.541 3.267,3.912 4.694,5.471 C 0.797,27.062 1.962,25.84 3.326,24.615 3.117,24.218 2.914,24.024 2.714,23.832 4.696,23.588 6.884,23.738 8.861,23.295 9.654,23.078 10.226,21.875 11.005,21.258 10.197,20.68 9.575,19.495 8.774,19.316 6.979,18.959 5.196,19.197 3.401,19.035 1.115,14.507 5.258,13.024 7.596,10.982 4.958,8.448 4.644,3.278 6.537,-0.94 6.917,-1.749 7.081,-3.345 6.672,-3.931 5.656,-4.904 4.244,-5.866 3.051,-5.84 c -2.584,0.056 -5.158,0.509 -7.723,1.363 -1.387,0.23 -2.353,1.448 -3.727,2.271 1.409,0.767 2.624,1.738 4.027,2.303 C -2.979,0.263 -1.589,0.036 0,0"
             style="fill:#400000;fill-opacity:1;fill-rule:evenodd;stroke:none"
             id="path182"
             inkscape:connector-curvature="0" /></g><g
           id="g184"
           transform="translate(292.1704,368.8105)"><path
             d="M 0,0 C 4.768,-0.105 9.583,1.977 14.274,-1.711 10.203,-6.002 4.72,-2.294 0.884,-4.997 c -0.136,-6.169 1.806,-8.202 7.787,-7.341 1.397,0.169 2.982,-0.065 4.55,-1.097 -2.996,-0.531 -5.987,-1.06 -8.981,-1.591 0.532,-2.798 1.075,-5.402 1.798,-8.602 1.205,0.569 2.411,1.143 3.804,1.309 0.803,0.181 2.182,-0.245 2.372,-0.646 0.182,-0.805 -0.052,-2.392 -0.653,-2.575 -2.419,-1.54 -5.034,-2.877 -7.635,-3.616 -1.2,-0.37 -2.956,1.061 -4.34,1.49 0.824,1.178 1.644,2.353 3.073,4.115 -0.75,2.007 -1.482,4.812 -2.819,7.231 -0.576,1.004 -2.561,1.248 -3.947,1.278 -2.386,0.054 -4.778,-0.29 -7.351,0.163 3.193,0.727 6.385,1.253 9.777,1.777 -0.733,2.803 -1.473,5.208 -2.211,7.814 -2.991,-0.335 -5.978,-0.664 -8.964,-0.797 -0.992,0.023 -1.964,1.038 -2.945,1.658 0.813,0.776 1.242,2.161 2.245,2.54 1.397,0.366 2.978,-0.066 4.378,0.301 2.194,0.347 4.972,0.087 5.051,3.667 -0.185,0.607 1.03,1.572 1.823,1.556 C -1.71,3.624 -0.933,2.811 -0.349,2.196 0.037,1.593 -0.186,0.603 0,0"
             style="fill:#400000;fill-opacity:1;fill-rule:evenodd;stroke:none"
             id="path186"
             inkscape:connector-curvature="0" /></g><g
           id="g188"
           transform="translate(396.0454,518.0234)"><path
             d="m 0,0 c 0.521,-3.397 1.032,-7.19 1.744,-10.991 0.186,-0.599 1.556,-1.625 2.152,-1.639 4.991,1.085 9.989,2.367 15.583,3.636 C 17.205,-3.967 15.311,0.256 13.604,3.88 9.201,2.583 4.8,1.285 0,0 M 5.355,26.36 C 1.957,25.639 -2.038,24.734 -6.831,23.645 -4.979,17.628 -3.118,11.815 -1.258,6 3.135,6.898 7.124,7.605 10.322,8.332 8.662,14.143 7.199,19.95 5.355,26.36 m -8.621,-39.23 c -0.508,3.994 -1.214,7.99 -1.917,12.187 -0.793,0.018 -1.386,0.231 -1.788,0.043 -2.999,-0.732 -5.993,-1.462 -8.795,-2.197 -7.605,-2.419 -7.808,-2.612 -8.579,-10.561 -0.227,-1.189 -0.252,-2.384 -0.483,-3.773 7.192,1.634 14.373,2.868 21.562,4.301 M -6.441,5.32 c -1.86,5.815 -3.521,11.623 -5.176,17.634 -3.193,-0.524 -6.588,-1.246 -10.177,-1.764 -0.158,-7.165 -0.314,-14.13 -0.461,-20.895 5.007,1.679 10.21,3.356 15.814,5.025 m 26.38,-20.496 c -10.367,-1.363 -20.926,-2.522 -31.502,-4.278 -4.585,-0.695 -9.198,-2.583 -13.801,-4.073 -4.209,-1.501 -5.577,-0.476 -5.079,4.091 1.487,13.309 2.967,26.415 4.455,39.722 0.482,3.772 2.914,5.909 6.508,6.626 8.584,1.6 17.169,3.403 25.948,4.999 4.594,0.895 6.354,-0.34 6.049,-5.111 -0.317,-5.368 1.371,-9.988 3.655,-14.616 3.804,-7.65 6.614,-15.476 9.819,-23.313 0.749,-2.206 1.872,-5.219 -1.13,-6.144 -1.401,-0.57 -3.545,1.47 -4.922,2.097"
             style="fill:#400000;fill-opacity:1;fill-rule:evenodd;stroke:none"
             id="path190"
             inkscape:connector-curvature="0" /></g><g
           id="g192"
           transform="translate(904.7314,348.6572)"><path
             d="m 0,0 c -0.772,1.013 -2.925,2.651 -2.514,3.242 0.648,2.177 2.092,4.73 3.905,5.689 2.613,1.336 5.998,1.655 9.182,1.785 1.197,0.172 3.155,-1.064 3.725,-2.274 C 14.871,7.436 13.827,5.068 13.017,4.489 9.005,2.785 4.808,1.686 0,0"
             style="fill:#400000;fill-opacity:1;fill-rule:evenodd;stroke:none"
             id="path194"
             inkscape:connector-curvature="0" /></g><g
           id="g196"
           transform="translate(961.4248,539.5303)"><path
             d="m 0,0 c -1.4,-0.367 -3.001,-0.927 -4.595,-1.09 -6.371,-0.458 -12.931,-0.511 -19.301,-0.967 -7.168,-0.439 -14.147,-1.477 -21.319,-2.117 -1.189,0.028 -2.363,0.851 -3.746,1.282 1.209,0.766 2.23,1.94 3.227,2.115 10.163,1.167 20.316,1.938 30.478,2.91 3.384,0.322 6.969,0.641 10.552,0.762 C -3.119,2.858 -1.547,2.029 0.037,1.594 0.025,1.197 0.013,0.597 0,0"
             style="fill:#400000;fill-opacity:1;fill-rule:evenodd;stroke:none"
             id="path198"
             inkscape:connector-curvature="0" /></g><g
           id="g200"
           transform="translate(364.6914,349.4824)"><path
             d="M 0,0 C 3.777,-0.084 6.498,-2.732 6.229,-5.91 6.147,-9.69 3.49,-13.02 0.708,-12.957 -2.669,-12.884 -4.785,-9.646 -4.675,-4.673 -4.604,-1.492 -2.98,0.064 0,0"
             style="fill:#400000;fill-opacity:1;fill-rule:evenodd;stroke:none"
             id="path202"
             inkscape:connector-curvature="0" /></g><g
           id="g204"
           transform="translate(637.6504,396.5908)"><path
             d="m 0,0 c -1.271,-3.557 -1.155,-7.344 -5.119,-6.658 -3.364,0.473 -3.301,3.261 -3.045,5.844 0.455,2.775 2.082,4.333 4.653,3.877 C -2.127,2.634 -0.974,0.818 0,0"
             style="fill:#400000;fill-opacity:1;fill-rule:evenodd;stroke:none"
             id="path206"
             inkscape:connector-curvature="0" /></g></g></g></g></svg>